<svg xmlns="http://www.w3.org/2000/svg" width="1400" height="500" viewBox="0 0 700 250">

    <style>
        .fill { fill:#000000 }
        .line { stroke:#000000; stroke-width:2; fill:none; }
        .block { stroke:#000000; stroke-width:2; fill:#ffffff; }
        .text { fill:#000000; font-family:Arial, sans-serif; font-size:14px; text-anchor:middle;
        dominant-baseline:middle; }
    </style>

    <!-- Arrow -->
    <defs>
        <path id="arrow" class="fill" d=" M0 0 L-5 2 L-5 -2" transform="scale(1.5)"/>
    </defs>

    <!-- Rect -->
    <defs>
        <rect id="rect" class="block" width="50" height="50"/>
    </defs>

    <!-- Block -->
    <defs>
        <path id="block" class="block" d="M0 0 L0 50 L50 25 Z"/>
    </defs>

    <!-- Integrator -->
    <defs>
        <g id="integrator">
            <use href="#rect"/>
            <text class="text" x="25" y="17.5">1</text>
            <path class="line" d="M17.5 25 H32.5"/>
            <text class="text" x="25" y="40">s</text>
        </g>
    </defs>

    <!-- Differentiator -->
    <defs>
        <g id="differentiator">
            <use href="#rect"/>
            <text class="text" x="25" y="30">s</text>
        </g>
    </defs>

    <!-- Constraint -->
    <defs>
        <g id="constraint">
            <use href="#rect"/>
            <path class="line" d="M7 40 H20 L30 10 H43"/>
            <path class="line" d="M5 25 H45" style="stroke-width:0.7"/>
            <path class="line" d="M25 5 V45" style="stroke-width:0.7"/>
        </g>
    </defs>


    <!-- Input -->
    <g transform="translate(0, 125)">
        <path class="line" d="M0 0 H100"/>
        <!-- Node -->
        <circle class="fill" cx="75" cy="0" r="4"/>
        <!-- P -->
        <path class="line" d="M75 0 V-75 H120"/>
        <use href="#arrow" transform="translate(125, -75)"/>
        <!-- I -->
        <path class="line" d="M75 0 H120"/>
        <use href="#arrow" transform="translate(125, 0)"/>
        <!-- D -->
        <path class="line" d="M75 0 V75 H120"/>
        <use href="#arrow" transform="translate(125, 75)"/>
    </g>


    <!-- P -->
    <g transform="translate(125, 125)">
        <g transform="translate(0, -25)">
            <use href="#block"/>
            <text class="text" x="15" y="30">Kp</text>
        </g>
    </g>


    <!-- I -->
    <g transform="translate(125, 200)">
        <g transform="translate(0, -25)">
            <use href="#block"/>
            <text class="text" x="15" y="30">Ki</text>
        </g>

        <path class="line" d="M50 0 H95"/>
        <use href="#arrow" transform="translate(100, 0)"/>

        <g transform="translate(100, -25)">
            <use href="#integrator"/>
        </g>
    </g>


    <!-- D -->
    <g transform="translate(125, 50)">
        <g transform="translate(0, -25)">
            <use href="#block"/>
            <text class="text" x="15" y="30">Kd</text>
        </g>

        <path class="line" d="M50 0 H95"/>
        <use href="#arrow" transform="translate(100, 0)"/>

        <!-- Filter and differentiator -->
        <g transform="translate(100, -25)">
            <rect class="block" height="50" width="100" />
            <!-- num -->
            <text class="text" x="50" y="17.5" >s</text>
            <path class="line" d="M17.5 25 H82.5"/>
            <!-- den -->
            <text class="text" x="50" y="40" >Tf s + 1</text>
        </g>
    </g>


    <!-- Sum -->
    <g transform="translate(400 125)">
        <!-- Sum -->
        <circle class="block" cx="0" cy="0" r="5"/>

        <!-- P -->
        <path class="line" d="M-10 0 H-225"/>
        <use href="#arrow" transform="translate(-5, 0)"/>

        <!-- I -->
        <path class="line" d="M0 10 V75 H-125"/>
        <use href="#arrow" transform="rotate(-90 2.5 2.5)"/>

        <!-- D -->
        <path class="line" d="M0 -10 V-75 H-75"/>
        <use href="#arrow" transform="rotate(90 2.5 -2.5)"/>

        <!-- Output -->
        <path class="line" d="M5 0 H45"/>
        <use href="#arrow" transform="translate(50, 0)"/>
    </g>

    <!-- Output -->
    <g transform="translate(450 125)">
        <use href="#constraint" transform="translate(0 -25)"/>
        <path class="line" d="M50 0 H95" />
        <use href="#arrow" transform="translate(100 0)"/>
    </g>
</svg>