<svg xmlns="http://www.w3.org/2000/svg" width="24" height="24" viewBox="0 0 24 24">
    <path fill="#17212b"
          d="M19.4 12.9c.04-.3.06-.6.06-.9s-.02-.6-.06-.9l2.11-1.65a.5.5 0 0 0 .12-.65l-2-3.46a.5.5 0 0 0-.61-.2l-2.49 1a7.02 7.02 0 0 0-1.56-.9l-.38-2.65a.5.5 0 0 0-.5-.42h-4a.5.5 0 0 0-.5.42l-.38 2.65c-.57.22-1.1.53-1.56.9l-2.49-1a.5.5 0 0 0-.61.2l-2 3.46a.5.5 0 0 0 .12.65l2.11 1.65c-.04.3-.06.6-.06.9s.02.6.06.9L2.59 14.55a.5.5 0 0 0-.12.65l2 3.46c.14.24.43.34.68.25l2.49-1c.46.37.99.68 1.56.9l.38 2.65c.05.26.26.44.5.44h4c.24 0 .45-.18.5-.44l.38-2.65c.57-.22 1.1-.53 1.56-.9l2.49 1c.25.09.54-.01.68-.25l2-3.46a.5.5 0 0 0-.12-.65l-2.11-1.65zM12 15.5a3.5 3.5 0 1 1 0-7 3.5 3.5 0 0 1 0 7z"/>
</svg>