<?xml version="1.0" encoding="UTF-8"?>
<svg version="1.1" xmlns="http://www.w3.org/2000/svg" width="256" height="256">
    <path d="M0 0 C1.65686501 -0.00571147 3.31372609 -0.01267872 4.97058105 -0.02079773 C9.4459158 -0.03865939 13.92105372 -0.03757388 18.39641333 -0.03185534 C22.14367318 -0.02875306 25.8908958 -0.03486754 29.63815033 -0.04089409 C38.48438467 -0.05491502 47.33052239 -0.05339858 56.17675781 -0.04199219 C65.27793146 -0.0305158 74.37881026 -0.04458413 83.47994506 -0.07138866 C91.31723306 -0.09359969 99.15442886 -0.10017082 106.99174607 -0.09431225 C111.66233328 -0.09095408 116.33273159 -0.0932814 121.00329208 -0.11056328 C125.39804607 -0.12611657 129.79236591 -0.12198473 134.18710327 -0.10325813 C135.79140266 -0.0995952 137.39573481 -0.10261302 139.00000381 -0.11314392 C155.16275442 -0.21106539 169.46388615 3.80614579 181.69970703 14.96655273 C193.89036038 28.07341385 196.90789695 42.63795803 196.85375977 59.9543457 C196.85947123 61.61121071 196.86643848 63.2680718 196.8745575 64.92492676 C196.89241916 69.4002615 196.89133364 73.87539942 196.88561511 78.35075903 C196.88251282 82.09801888 196.8886273 85.8452415 196.89465386 89.59249604 C196.90867479 98.43873038 196.90715834 107.2848681 196.89575195 116.13110352 C196.88427557 125.23227716 196.8983439 134.33315596 196.92514843 143.43429077 C196.94735946 151.27157876 196.95393059 159.10877456 196.94807202 166.94609177 C196.94471385 171.61667898 196.94704117 176.28707729 196.96432304 180.95763779 C196.97987634 185.35239177 196.97574449 189.74671162 196.9570179 194.14144897 C196.95335496 195.74574836 196.95637278 197.35008052 196.96690369 198.95434952 C197.06482516 215.11710012 193.04761397 229.41823185 181.88720703 241.65405273 C168.78034591 253.84470609 154.21580173 256.86224265 136.89941406 256.80810547 C135.24254905 256.81381694 133.58568797 256.82078419 131.92883301 256.8289032 C127.45349826 256.84676486 122.97836034 256.84567935 118.50300074 256.83996081 C114.75574088 256.83685852 111.00851827 256.84297301 107.26126373 256.84899956 C98.41502939 256.86302049 89.56889167 256.86150404 80.72265625 256.85009766 C71.6214826 256.83862127 62.5206038 256.8526896 53.419469 256.87949413 C45.58218101 256.90170516 37.7449852 256.90827629 29.90766799 256.90241772 C25.23708078 256.89905955 20.56668248 256.90138687 15.89612198 256.91866875 C11.50136799 256.93422204 7.10704815 256.9300902 2.71231079 256.9113636 C1.10801141 256.90770066 -0.49632075 256.91071849 -2.10058975 256.92124939 C-18.26334036 257.01917086 -32.56447208 253.00195968 -44.80029297 241.84155273 C-56.99094632 228.73469161 -60.00848288 214.17014744 -59.9543457 196.85375977 C-59.96005717 195.19689475 -59.96702442 193.54003367 -59.97514343 191.88317871 C-59.9930051 187.40784397 -59.99191958 182.93270605 -59.98620105 178.45734644 C-59.98309876 174.71008658 -59.98921324 170.96286397 -59.99523979 167.21560943 C-60.00926073 158.36937509 -60.00774428 149.52323737 -59.99633789 140.67700195 C-59.98486151 131.5758283 -59.99892983 122.47494951 -60.02573436 113.3738147 C-60.04794539 105.53652671 -60.05451653 97.6993309 -60.04865795 89.8620137 C-60.04529978 85.19142649 -60.04762711 80.52102818 -60.06490898 75.85046768 C-60.08046227 71.45571369 -60.07633043 67.06139385 -60.05760384 62.66665649 C-60.0539409 61.06235711 -60.05695872 59.45802495 -60.06748962 57.85375595 C-60.1654111 41.69100534 -56.14819991 27.38987362 -44.98779297 15.15405273 C-31.88093185 2.96339938 -17.31638767 -0.05413718 0 0 Z "
          fill="#3AA3C8" transform="translate(59.55029296875,-0.404052734375)"/>
    <path d="M0 0 C0.84433594 0.26683594 1.68867188 0.53367188 2.55859375 0.80859375 C19.07779231 6.60706438 30.49966478 19.73398751 38 35 C39.22293892 37.96562688 40.18209946 40.90206164 41 44 C41.34546875 45.07507813 41.6909375 46.15015625 42.046875 47.2578125 C43.05339051 51.20962339 43.38258035 54.88627878 43.375 58.9375 C43.37628906 59.66316162 43.37757813 60.38882324 43.37890625 61.13647461 C43.2280724 69.07667675 41.28024246 76.4365172 39 84 C40.11375 84.0825 41.2275 84.165 42.375 84.25 C46 85 46 85 47.30593872 86.79891968 C48.1575102 89.49951296 47.85399504 90.40313534 46.72998047 92.96728516 C46.40238739 93.73553619 46.07479431 94.50378723 45.73727417 95.2953186 C45.18283127 96.52972183 45.18283127 96.52972183 44.6171875 97.7890625 C44.24651154 98.64752777 43.87583557 99.50599304 43.493927 100.39047241 C42.30218326 103.14192455 41.08921291 105.88339962 39.875 108.625 C38.68717117 111.34714801 37.50369675 114.0711618 36.32034302 116.79525757 C35.58270723 118.48877871 34.84162527 120.18080481 34.09640503 121.8710022 C31.60424789 127.53248033 29.26469715 133.24385125 27 139 C25.68 139 24.36 139 23 139 C21.02 133.72 19.04 128.44 17 123 C13.3037397 123 12.26236863 123.96390505 9.2734375 126.078125 C7.86058472 127.07005859 7.86058472 127.07005859 6.41918945 128.08203125 C5.41460693 128.79746094 4.41002441 129.51289063 3.375 130.25 C2.34914795 130.97058594 1.3232959 131.69117188 0.26635742 132.43359375 C-4.56704797 135.83363925 -9.37655683 139.26464075 -14.16015625 142.734375 C-15.31620361 143.56727051 -15.31620361 143.56727051 -16.49560547 144.41699219 C-17.92675425 145.45058193 -19.35188811 146.49256628 -20.77001953 147.54394531 C-24.21313499 150.03107554 -25.62793622 151 -30 151 C-31.34033203 149.57885742 -31.34033203 149.57885742 -32.5078125 147.60546875 C-32.93707031 146.89712891 -33.36632812 146.18878906 -33.80859375 145.45898438 C-34.24300781 144.70939453 -34.67742187 143.95980469 -35.125 143.1875 C-35.56714844 142.44951172 -36.00929688 141.71152344 -36.46484375 140.95117188 C-37.28953081 139.57461719 -38.10807024 138.19434776 -38.91845703 136.80932617 C-39.89534273 135.1750824 -40.94387379 133.58418932 -42 132 C-45.53934223 133.28646924 -48.3514961 134.79352101 -51.36328125 137.046875 C-52.16830078 137.645 -52.97332031 138.243125 -53.80273438 138.859375 C-55.04506836 139.79523438 -55.04506836 139.79523438 -56.3125 140.75 C-57.12912109 141.3584375 -57.94574219 141.966875 -58.78710938 142.59375 C-61.97196959 144.96907204 -65.15482976 147.34410471 -68.29370117 149.7800293 C-69.00115479 150.32570557 -69.7086084 150.87138184 -70.4375 151.43359375 C-71.37335938 152.16533813 -71.37335938 152.16533813 -72.328125 152.91186523 C-74 154 -74 154 -76.6875 154.3125 C-80.16559021 152.3384488 -81.93818258 149.36032371 -84 146 C-89.00293855 147.69085398 -93.16111177 150.52770555 -97.5625 153.375 C-153.31867518 189 -153.31867518 189 -160 189 C-159.41884626 185.48157214 -158.20392497 183.83744782 -155.68359375 181.35546875 C-154.65975586 180.33936523 -154.65975586 180.33936523 -153.61523438 179.30273438 C-152.53725586 178.25569336 -152.53725586 178.25569336 -151.4375 177.1875 C-150.40012695 176.15786133 -150.40012695 176.15786133 -149.34179688 175.10742188 C-144.71602948 170.55063144 -139.93057274 166.22321176 -135 162 C-134.43434326 161.51249268 -133.86868652 161.02498535 -133.28588867 160.52270508 C-131.65167042 159.11606396 -130.01401948 157.71354274 -128.375 156.3125 C-124.7337043 153.19976359 -121.09411282 150.08564545 -117.4765625 146.9453125 C-110.12664818 140.57669377 -102.64062293 134.44082152 -94.93603516 128.50634766 C-92.76804353 126.81952441 -90.62460528 125.10374726 -88.48046875 123.38671875 C-86.94563424 122.17407184 -85.41048262 120.96182616 -83.875 119.75 C-83.15207764 119.16420166 -82.42915527 118.57840332 -81.68432617 117.97485352 C-80.66109253 117.17519165 -80.66109253 117.17519165 -79.6171875 116.359375 C-79.01503418 115.87952148 -78.41288086 115.39966797 -77.79248047 114.90527344 C-76 114 -76 114 -73.88330078 114.19238281 C-71.10444747 115.38404042 -70.34232918 117.38245811 -69 120 C-65.61994673 118.55140574 -63.5412772 116.62669829 -61 114 C-62.051875 113.05253906 -62.051875 113.05253906 -63.125 112.0859375 C-71.10127286 104.56483239 -76.11563984 96.76872032 -81 87 C-81.4125 87.53109375 -81.825 88.0621875 -82.25 88.609375 C-87.92507837 95.55121193 -93.07034118 98.83573944 -102 100 C-104.24805957 100.11240298 -106.49916945 100.17453439 -108.75 100.1875 C-109.87921875 100.20167969 -111.0084375 100.21585937 -112.171875 100.23046875 C-115 100 -115 100 -117 98 C-117.25396729 95.79882812 -117.25396729 95.79882812 -117.25878906 93.03125 C-117.26509338 91.99677734 -117.27139771 90.96230469 -117.27789307 89.89648438 C-117.2738446 88.77564453 -117.26979614 87.65480469 -117.265625 86.5 C-117.26849518 84.78006836 -117.26849518 84.78006836 -117.27142334 83.02539062 C-117.27278622 80.59765402 -117.26908267 78.16991016 -117.26074219 75.7421875 C-117.25004438 72.01545927 -117.26063431 68.28921314 -117.2734375 64.5625 C-117.27211592 62.20833226 -117.26955357 59.85416483 -117.265625 57.5 C-117.26967346 56.37916016 -117.27372192 55.25832031 -117.27789307 54.10351562 C-117.27158875 53.06904297 -117.26528442 52.03457031 -117.25878906 50.96875 C-117.25719788 50.05544922 -117.25560669 49.14214844 -117.25396729 48.20117188 C-117 46 -117 46 -115 44 C-104.79644771 42.99861832 -95.67872605 42.94507485 -87 49 C-85.515 49.99 -85.515 49.99 -84 51 C-83.938125 49.7625 -83.87625 48.525 -83.8125 47.25 C-82.09075663 32.22602016 -72.14297846 19.56230315 -61 10 C-43.3001838 -3.29815138 -21.11100868 -7.35541931 0 0 Z "
          fill="#121F20" transform="translate(194,34)"/>
    <path d="M0 0 C-0.33 0.99 -0.66 1.98 -1 3 C-1.99 2.67 -2.98 2.34 -4 2 C-4.33 5.96 -4.66 9.92 -5 14 C-4.01 14 -3.02 14 -2 14 C-1.67 11.03 -1.34 8.06 -1 5 C1.31 5 3.62 5 6 5 C5.67 7.31 5.34 9.62 5 12 C5.99 12 6.98 12 8 12 C8.33 10.35 8.66 8.7 9 7 C15.75 7.875 15.75 7.875 18 9 C17.5359375 10.1446875 17.5359375 10.1446875 17.0625 11.3125 C16.32106407 13.18789677 15.63771783 15.08684652 15 17 C15.7425 16.154375 16.485 15.30875 17.25 14.4375 C20 12 20 12 22.0625 12 C24.28169552 13.14539123 26.13466907 14.33452595 28 16 C28 16.66 28 17.32 28 18 C27.34 18.33 26.68 18.66 26 19 C25.505 20.485 25.505 20.485 25 22 C26.32 21.01 27.64 20.02 29 19 C30.32 19.66 31.64 20.32 33 21 C29.89339118 24.43242389 26.67734683 26.47586449 22.625 28.6875 C18.09056268 31.17961381 13.74475441 33.80435057 9.47192383 36.72290039 C1.05270715 42.45358899 1.05270715 42.45358899 -4.0625 42.75 C-8.13259025 42.62616194 -8.13259025 42.62616194 -11 45.4375 C-14.51059691 49.9354523 -14.49288222 53.43225643 -14 59 C-12.72285266 63.32811044 -11.62878314 65.44266949 -8.25 68.4375 C-4.41614322 70.28070038 -2.2091441 70.52614301 2 70 C6.85107047 68.04029604 9.29532694 65.86381563 12.3125 61.625 C13.46105469 60.02398437 13.46105469 60.02398437 14.6328125 58.390625 C15.42239695 57.26078125 16.21145635 56.1305704 17 55 C17.78851612 53.89023658 18.57757533 52.78085884 19.3671875 51.671875 C25.17152896 43.46088496 30.68869211 35.10165 35 26 C37.89932357 28.39509338 38.50168276 30.31245243 39 34 C37.5459375 34.680625 37.5459375 34.680625 36.0625 35.375 C32.92920418 36.65786221 32.92920418 36.65786221 32 39 C32.7425 38.67 33.485 38.34 34.25 38 C37 37 37 37 41 37 C42.60725635 40.21451269 42.05748185 43.43612536 42 47 C38.535 47.495 38.535 47.495 35 48 C35 48.99 35 49.98 35 51 C37.64 51 40.28 51 43 51 C43.28571429 59.57142857 43.28571429 59.57142857 41 63 C38.36 62.34 35.72 61.68 33 61 C35.35277269 63.72426311 37.62496331 64.8141763 41 66 C40.34 67.98 39.68 69.96 39 72 C35.27084983 72.02912348 31.5417291 72.04684037 27.8125 72.0625 C26.22985352 72.07506836 26.22985352 72.07506836 24.61523438 72.08789062 C23.59365234 72.09111328 22.57207031 72.09433594 21.51953125 72.09765625 C20.58214111 72.10289307 19.64475098 72.10812988 18.67895508 72.11352539 C16.01950523 72.00082657 13.59079427 71.59376649 11 71 C12.36551752 75.06061789 14.18998959 77.58943346 17.125 80.6875 C21 84.79003559 21 84.79003559 21 87 C18.52827131 88.66781693 16.05743933 90.22410442 13.5 91.75 C8.90004913 94.54640578 4.38239325 97.31721119 0.125 100.625 C-3 103 -3 103 -5 103 C-6.14501953 101.53125 -6.14501953 101.53125 -7.3828125 99.5 C-7.82753906 98.778125 -8.27226562 98.05625 -8.73046875 97.3125 C-9.19066406 96.549375 -9.65085938 95.78625 -10.125 95 C-10.59292969 94.236875 -11.06085938 93.47375 -11.54296875 92.6875 C-12.7018143 90.79550727 -13.85376747 88.89965148 -15 87 C-19.76165305 88.01366588 -22.69873744 90.70146798 -26.46484375 93.69921875 C-29 95 -29 95 -31.51171875 94.48046875 C-41.87799222 88.31278014 -49.16833132 77.21010634 -52.9375 65.9375 C-56.27669444 51.40465375 -54.70828267 37.25752318 -47.4609375 24.234375 C-40.00354819 12.7125318 -29.15350944 4.58196861 -16 0.625 C-10.75974254 -0.48522404 -5.32416905 -0.15972507 0 0 Z "
          fill="#F3BD38" transform="translate(176,45)"/>
    <path d="M0 0 C9.50454046 -0.2483044 18.84097474 0.11155978 28.3125 0.9375 C29.32062744 1.02435059 30.32875488 1.11120117 31.36743164 1.20068359 C38.59800682 1.86600227 38.59800682 1.86600227 42 3 C39.38117895 11.29598555 36.13487891 19.31676419 32.875 27.375 C32.04867472 29.42322668 31.22311497 31.47175743 30.39846802 33.5206604 C29.65629327 35.36381998 28.91194705 37.20610476 28.16748047 39.04833984 C27.39090994 41.01168942 26.66766783 42.9969965 26 45 C25.34 45 24.68 45 24 45 C22.35 39.72 20.7 34.44 19 29 C15.24110634 30.50355746 12.86780056 31.61234192 9.69921875 33.87109375 C8.89419922 34.44045654 8.08917969 35.00981934 7.25976562 35.59643555 C5.98649414 36.50776245 5.98649414 36.50776245 4.6875 37.4375 C2.90017528 38.70374023 1.11240857 39.96935677 -0.67578125 41.234375 C-2.01310303 42.18280273 -2.01310303 42.18280273 -3.37744141 43.15039062 C-7.87805794 46.32453612 -12.42535981 49.42999361 -16.97387695 52.53491211 C-19.47021635 54.24300359 -21.91883806 55.93278777 -24.25 57.86328125 C-24.8275 58.23839844 -25.405 58.61351562 -26 59 C-29.60513612 57.79828796 -29.97278863 56.90439696 -31.91796875 53.74609375 C-32.44970703 52.89208984 -32.98144531 52.03808594 -33.52929688 51.15820312 C-34.35010742 49.81145508 -34.35010742 49.81145508 -35.1875 48.4375 C-35.74630859 47.53580078 -36.30511719 46.63410156 -36.88085938 45.70507812 C-38.26160292 43.47464624 -39.63421377 41.23961101 -41 39 C-44.7995411 40.34853742 -47.65648865 42.05151653 -50.8359375 44.51953125 C-51.73570312 45.21240234 -52.63546875 45.90527344 -53.5625 46.61914062 C-54.490625 47.34294922 -55.41875 48.06675781 -56.375 48.8125 C-59.09635777 50.91831256 -61.81951815 53.02149734 -64.54980469 55.11572266 C-66.07054393 56.28521902 -67.58328738 57.46528995 -69.08300781 58.66162109 C-73.47529413 62.05012358 -73.47529413 62.05012358 -76.05224609 61.80395508 C-79.23975224 60.48827975 -80.34077609 57.90364184 -82 55 C-82 54.34 -82 53.68 -82 53 C-87.80137 55.59355365 -93.13833746 58.66043587 -98.375 62.25 C-107.0645538 68.19554577 -116.08839685 73.58728169 -125.10107422 79.02246094 C-125.68848389 79.37680206 -126.27589355 79.73114319 -126.88110352 80.09622192 C-128.57435782 81.11637379 -130.26933311 82.13366744 -131.96435547 83.15087891 C-134.58415951 84.74669648 -137.15523202 86.39634137 -139.72265625 88.07421875 C-140.80417969 88.70972656 -141.88570312 89.34523438 -143 90 C-143.66 89.67 -144.32 89.34 -145 89 C-137.77024932 82.17131578 -130.53175845 75.45636496 -122.765625 69.234375 C-119.69189556 66.75107947 -116.69041198 64.19288971 -113.6875 61.625 C-107.52776015 56.3805261 -101.19767321 51.37719519 -94.81005859 46.41455078 C-92.91270242 44.93177742 -91.02751059 43.43457426 -89.14453125 41.93359375 C-88.51345459 41.43214844 -87.88237793 40.93070313 -87.23217773 40.4140625 C-86.02518291 39.4544326 -84.82015138 38.49232628 -83.61743164 37.52734375 C-80.86317648 35.34504814 -78.23668248 33.39729951 -75 32 C-73.68 33.98 -72.36 35.96 -71 38 C-67.00174097 37.45164218 -64.6676372 36.32643731 -61.48828125 33.8671875 C-60.22661133 32.90425781 -60.22661133 32.90425781 -58.93945312 31.921875 C-58.07255859 31.24640625 -57.20566406 30.5709375 -56.3125 29.875 C-54.6015183 28.55825971 -52.889279 27.24315193 -51.17578125 25.9296875 C-50.33225098 25.28225586 -49.4887207 24.63482422 -48.61962891 23.96777344 C-44.49110586 20.8665716 -40.25478404 17.92455925 -36 15 C-30.8288885 19.54431011 -27.55336892 25.15281368 -24 31 C-19.97002214 30.37835448 -16.99885853 28.21174156 -13.703125 25.96484375 C-13.10949158 25.56672989 -12.51585815 25.16861603 -11.90423584 24.75843811 C-10.0157997 23.49017853 -8.13288277 22.21398588 -6.25 20.9375 C-4.96780415 20.07434038 -3.68525586 19.21170405 -2.40234375 18.34960938 C0.73588728 16.23911509 3.86919387 14.12149145 7 12 C6.24306519 8.57023731 5.1148058 6.52953931 2.9375 3.75 C2.11572266 2.69039063 2.11572266 2.69039063 1.27734375 1.609375 C0.85582031 1.07828125 0.43429688 0.5471875 0 0 Z "
          fill="#F1AF23" transform="translate(194,121)"/>
    <path d="M0 0 C0.97324219 -0.03287109 1.94648437 -0.06574219 2.94921875 -0.09960938 C9.70819859 -0.1496422 14.16357608 1.03948632 19.375 5.4375 C21.375 7.75 21.375 7.75 22.375 9.4375 C22.560625 7.766875 22.560625 7.766875 22.75 6.0625 C23.375 2.4375 23.375 2.4375 25.375 0.4375 C28.34375 0.171875 28.34375 0.171875 31.875 0.1875 C33.0403125 0.18234375 34.205625 0.1771875 35.40625 0.171875 C38.375 0.4375 38.375 0.4375 40.375 2.4375 C40.55867306 5.18325659 40.60663381 7.81694126 40.5625 10.5625 C40.55460449 11.41183105 40.54670898 12.26116211 40.53857422 13.13623047 C40.50019833 16.23711002 40.43885892 19.33703946 40.375 22.4375 C40.35002087 23.78645691 40.32512263 25.13541533 40.30029297 26.484375 C40.23104278 30.1157321 40.14742301 33.7465521 40.05459595 37.37738037 C40.01818816 38.83454645 39.9846407 40.29178679 39.95394897 41.74908447 C39.9087362 43.81488812 39.85064019 45.87994 39.7890625 47.9453125 C39.7576416 49.14816895 39.7262207 50.35102539 39.69384766 51.59033203 C39.375 54.4375 39.375 54.4375 37.375 56.4375 C34.37109375 56.66796875 34.37109375 56.66796875 30.8125 56.625 C29.04712891 56.61533203 29.04712891 56.61533203 27.24609375 56.60546875 C24.375 56.4375 24.375 56.4375 23.375 55.4375 C23.21693469 53.51271187 23.123865 51.5825079 23.05859375 49.65234375 C23.01669922 48.48251953 22.97480469 47.31269531 22.93164062 46.10742188 C22.89232422 44.87572266 22.85300781 43.64402344 22.8125 42.375 C22.76931641 41.13943359 22.72613281 39.90386719 22.68164062 38.63085938 C22.57515802 35.56652665 22.47314576 32.50210927 22.375 29.4375 C21.9109375 30.2305957 21.446875 31.02369141 20.96875 31.84082031 C18.38888899 36.04416004 15.11693062 38.85685646 10.375 40.4375 C8.04200175 40.47704234 5.70791811 40.48151732 3.375 40.4375 C3.39820312 41.42492187 3.42140625 42.41234375 3.4453125 43.4296875 C3.47238281 45.35167969 3.47238281 45.35167969 3.5 47.3125 C3.52320312 48.58867188 3.54640625 49.86484375 3.5703125 51.1796875 C3.375 54.4375 3.375 54.4375 1.375 56.4375 C-1.375 56.703125 -1.375 56.703125 -4.625 56.6875 C-6.23375 56.69523437 -6.23375 56.69523437 -7.875 56.703125 C-10.625 56.4375 -10.625 56.4375 -12.625 54.4375 C-12.87896729 52.23632812 -12.87896729 52.23632812 -12.88378906 49.46875 C-12.89009338 48.43427734 -12.89639771 47.39980469 -12.90289307 46.33398438 C-12.8988446 45.21314453 -12.89479614 44.09230469 -12.890625 42.9375 C-12.89253845 41.79087891 -12.8944519 40.64425781 -12.89642334 39.46289062 C-12.89778622 37.03515402 -12.89408267 34.60741016 -12.88574219 32.1796875 C-12.87504438 28.45295927 -12.88563431 24.72671314 -12.8984375 21 C-12.89711592 18.64583226 -12.89455357 16.29166483 -12.890625 13.9375 C-12.89467346 12.81666016 -12.89872192 11.69582031 -12.90289307 10.54101562 C-12.89658875 9.50654297 -12.89028442 8.47207031 -12.88378906 7.40625 C-12.88219788 6.49294922 -12.88060669 5.57964844 -12.87896729 4.63867188 C-12.15153128 -1.66612314 -4.79459437 0.02791161 0 0 Z "
          fill="#152426" transform="translate(34.625,77.5625)"/>
    <path d="M0 0 C11.52589552 0.67799385 21.51037982 5.29429366 30 13 C30.62519531 13.53367187 31.25039062 14.06734375 31.89453125 14.6171875 C36.99196939 19.25929892 40.12480223 24.7786669 43 31 C43.27142822 31.5772583 43.54285645 32.1545166 43.82250977 32.74926758 C46.248847 38.42417275 46.5011102 43.69172699 46.4375 49.8125 C46.43355225 50.7821167 46.42960449 51.7517334 46.42553711 52.75073242 C46.29132266 59.43393815 46.05676688 67.94323312 41 73 C39.48071962 73.07179964 37.95832518 73.08392007 36.4375 73.0625 C35.19806641 73.04896484 35.19806641 73.04896484 33.93359375 73.03515625 C32.97646484 73.01775391 32.97646484 73.01775391 32 73 C32 72.67 32 72.34 32 72 C34.31 71.67 36.62 71.34 39 71 C39.33 69.35 39.66 67.7 40 66 C37.69 65.01 35.38 64.02 33 63 C33 62.34 33 61.68 33 61 C35.64 61.33 38.28 61.66 41 62 C41.66 58.37 42.32 54.74 43 51 C40.36 51 37.72 51 35 51 C35 50.01 35 49.02 35 48 C37.31 47.67 39.62 47.34 42 47 C41.67 43.7 41.34 40.4 41 37 C38.03 37.66 35.06 38.32 32 39 C32.33 38.01 32.66 37.02 33 36 C36.0625 34.8125 36.0625 34.8125 39 34 C38.01 31.69 37.02 29.38 36 27 C35.62230469 27.680625 35.24460938 28.36125 34.85546875 29.0625 C29.73881718 38.0735585 23.99316513 46.55450341 18 55 C17.57332031 55.60537598 17.14664063 56.21075195 16.70703125 56.83447266 C12.27217644 63.09328392 8.91756413 67.54121793 2 71 C-2.17433895 71.40137875 -4.49551713 71.26194303 -8.25 69.3125 C-12.26402893 65.93706658 -14.62357697 62.23970638 -15.23828125 56.94921875 C-15.4194823 51.42735507 -14.72103642 48.35892838 -11 44 C-7.93194477 41.95462985 -7.33018391 41.81696425 -3.89453125 41.7265625 C1.83359113 41.19161353 5.6488074 38.56764003 10.3125 35.375 C11.97030957 34.28226773 13.62916456 33.19111984 15.2890625 32.1015625 C16.08860352 31.57079102 16.88814453 31.04001953 17.71191406 30.49316406 C22.35610653 27.46244691 27.17672546 24.73415164 32 22 C31.505 21.01 31.505 21.01 31 20 C29.02 20.66 27.04 21.32 25 22 C25.33 20.68 25.66 19.36 26 18 C26.66 18 27.32 18 28 18 C25.68767578 15.43750025 25.68767578 15.43750025 23 13 C22.01 13 21.02 13 20 13 C18.9739266 14.31337396 17.97272675 15.64664105 17 17 C16.34 17 15.68 17 15 17 C15.54723683 13.62537285 16.0549 11.91765 18 9 C15.03 8.34 12.06 7.68 9 7 C8.67 8.65 8.34 10.3 8 12 C7.01 12 6.02 12 5 12 C5.33 9.69 5.66 7.38 6 5 C3.69 5 1.38 5 -1 5 C-1.33 7.97 -1.66 10.94 -2 14 C-2.99 14 -3.98 14 -5 14 C-5 10.04 -5 6.08 -5 2 C-3.68 2 -2.36 2 -1 2 C-0.67 1.34 -0.34 0.68 0 0 Z "
          fill="#19201D" transform="translate(176,45)"/>
    <path d="M0 0 C13.71849107 10.55702811 21.75250405 24.98435373 24.22265625 42.06640625 C25.14228116 53.13554997 23.62220426 62.50352492 20.22265625 73.06640625 C18.24265625 73.06640625 16.26265625 73.06640625 14.22265625 73.06640625 C14.53274509 71.46177176 14.84581912 69.85771394 15.16015625 68.25390625 C15.42119141 66.91392578 15.42119141 66.91392578 15.6875 65.546875 C16.22265625 63.06640625 16.22265625 63.06640625 17.22265625 60.06640625 C18.77264979 42.00951597 16.08728314 27.14684566 4.4140625 12.8515625 C-5.23620931 2.39877328 -18.92752253 -3.80382906 -33.08642578 -4.40429688 C-48.49508564 -4.61034091 -62.38771213 0.71706428 -73.65234375 11.37890625 C-84.39028698 22.89215224 -89.52557267 36.62880234 -89.23046875 52.23242188 C-88.9661652 58.50963125 -88.15108043 64.20878226 -85.77734375 70.06640625 C-85.38675781 71.03707031 -84.99617188 72.00773437 -84.59375 73.0078125 C-80.99390769 80.99273183 -75.9237378 86.89972707 -69.77734375 93.06640625 C-68.63652344 94.21109375 -68.63652344 94.21109375 -67.47265625 95.37890625 C-66.91320312 95.93578125 -66.35375 96.49265625 -65.77734375 97.06640625 C-66.76734375 98.05640625 -66.76734375 98.05640625 -67.77734375 99.06640625 C-72.93352568 98.54331533 -76.33572464 94.61738522 -79.77734375 91.06640625 C-85.62219192 83.79281741 -91.73312024 75.16348597 -92.0234375 65.57421875 C-92.05630859 64.70410156 -92.08917969 63.83398438 -92.12304688 62.9375 C-92.18397969 61.11470141 -92.24130339 59.29177841 -92.29492188 57.46875 C-92.47584637 52.8466412 -92.86883307 49.33340167 -94.77734375 45.06640625 C-95.69121711 31.75666085 -87.7843465 18.30064613 -79.59765625 8.44140625 C-58.73728469 -13.99204251 -25.19342885 -17.53972895 0 0 Z "
          fill="#3D4B4E" transform="translate(207.77734375,45.93359375)"/>
    <path d="M0 0 C19.86096257 0 19.86096257 0 25.51171875 5.4609375 C31.12012466 11.7924903 31.44121498 17.00299108 31.25390625 25.22265625 C30.79538394 32.04405739 29.16113062 38.24632706 24 43 C15.67206905 47.6092676 9.7156919 48 0 48 C0 32.16 0 16.32 0 0 Z "
          fill="#F1E9D2" transform="translate(81,82)"/>
    <path d="M0 0 C20 0 20 0 25 3 C29.42246346 8.0366945 30.30563342 10.88347749 30.2109375 17.46484375 C29.78925078 22.53289345 27.68302433 25.58896805 23.9375 28.8125 C19.18858848 32.34892347 15.83225896 32.4167741 10 33 C9.67 37.95 9.34 42.9 9 48 C6.03 48 3.06 48 0 48 C0 32.16 0 16.32 0 0 Z "
          fill="#F0E8D1" transform="translate(25,82)"/>
    <path d="M0 0 C9.50454046 -0.2483044 18.84097474 0.11155978 28.3125 0.9375 C29.32062744 1.02435059 30.32875488 1.11120117 31.36743164 1.20068359 C38.59800682 1.86600227 38.59800682 1.86600227 42 3 C39.38117895 11.29598555 36.13487891 19.31676419 32.875 27.375 C32.04867472 29.42322668 31.22311497 31.47175743 30.39846802 33.5206604 C29.65629327 35.36381998 28.91194705 37.20610476 28.16748047 39.04833984 C27.39090994 41.01168942 26.66766783 42.9969965 26 45 C25.34 45 24.68 45 24 45 C21.525 37.08 21.525 37.08 19 29 C17.35 29.66 15.7 30.32 14 31 C8.33333333 33 8.33333333 33 6 33 C4.75 25.375 4.75 25.375 7 22 C7.83375214 16.60643526 8.32305035 11.19408599 5.43359375 6.40234375 C3.70572735 4.47900155 1.91200476 2.73641249 0 1 C0 0.67 0 0.34 0 0 Z "
          fill="#E65121" transform="translate(194,121)"/>
    <path d="M0 0 C11.52589552 0.67799385 21.51037982 5.29429366 30 13 C30.62519531 13.53367187 31.25039062 14.06734375 31.89453125 14.6171875 C36.99196939 19.25929892 40.12480223 24.7786669 43 31 C43.27142822 31.5772583 43.54285645 32.1545166 43.82250977 32.74926758 C46.248847 38.42417275 46.5011102 43.69172699 46.4375 49.8125 C46.43355225 50.7821167 46.42960449 51.7517334 46.42553711 52.75073242 C46.29132266 59.43393815 46.05676688 67.94323312 41 73 C39.48071962 73.07179964 37.95832518 73.08392007 36.4375 73.0625 C35.19806641 73.04896484 35.19806641 73.04896484 33.93359375 73.03515625 C32.97646484 73.01775391 32.97646484 73.01775391 32 73 C32 72.67 32 72.34 32 72 C34.31 71.67 36.62 71.34 39 71 C39.33 69.35 39.66 67.7 40 66 C37.69 65.01 35.38 64.02 33 63 C33 62.34 33 61.68 33 61 C35.64 61.33 38.28 61.66 41 62 C41.66 58.37 42.32 54.74 43 51 C40.36 51 37.72 51 35 51 C35 50.01 35 49.02 35 48 C37.31 47.67 39.62 47.34 42 47 C41.67 43.7 41.34 40.4 41 37 C38.03 37.66 35.06 38.32 32 39 C32.33 38.01 32.66 37.02 33 36 C36.0625 34.8125 36.0625 34.8125 39 34 C38.01 31.69 37.02 29.38 36 27 C35.62230469 27.680625 35.24460938 28.36125 34.85546875 29.0625 C29.73881718 38.0735585 23.99316513 46.55450341 18 55 C17.57332031 55.60537598 17.14664063 56.21075195 16.70703125 56.83447266 C12.27217644 63.09328392 8.91756413 67.54121793 2 71 C-2.23390162 71.40710593 -4.51588352 71.25575965 -8.3125 69.25 C-10.77542762 67.18801409 -11.9376239 65.97465309 -13 63 C-11.989375 63.66 -10.97875 64.32 -9.9375 65 C-6.1439904 67.14914556 -3.39502395 67.55936669 1 67 C4.42210829 66.04180968 6.35097759 65.14809827 8.1328125 61.99609375 C8.91851192 60.28458768 9.69932602 58.57083462 10.4765625 56.85546875 C12.1975424 53.62973464 14.2341591 51.1391741 16.625 48.375 C20.76448155 43.58814088 24.48262237 38.65604572 28.0625 33.4375 C28.53961426 32.74640137 29.01672852 32.05530273 29.50830078 31.34326172 C31.37789096 28.59033619 32.94250753 26.17247742 34 23 C33.34 22.67 32.68 22.34 32 22 C31.505 21.01 31.505 21.01 31 20 C29.02 20.66 27.04 21.32 25 22 C25.33 20.68 25.66 19.36 26 18 C26.66 18 27.32 18 28 18 C25.68767578 15.43750025 25.68767578 15.43750025 23 13 C22.01 13 21.02 13 20 13 C18.9739266 14.31337396 17.97272675 15.64664105 17 17 C16.34 17 15.68 17 15 17 C15.54723683 13.62537285 16.0549 11.91765 18 9 C15.03 8.34 12.06 7.68 9 7 C8.67 8.65 8.34 10.3 8 12 C7.01 12 6.02 12 5 12 C5.33 9.69 5.66 7.38 6 5 C3.69 5 1.38 5 -1 5 C-1.33 7.97 -1.66 10.94 -2 14 C-2.99 14 -3.98 14 -5 14 C-5 10.04 -5 6.08 -5 2 C-3.68 2 -2.36 2 -1 2 C-0.67 1.34 -0.34 0.68 0 0 Z "
          fill="#D2951B" transform="translate(176,45)"/>
    <path d="M0 0 C0.4140625 2.28515625 0.4140625 2.28515625 0.625 5.0625 C0.69976562 5.98160156 0.77453125 6.90070312 0.8515625 7.84765625 C0.90054688 8.55792969 0.94953125 9.26820312 1 10 C0.01 9.67 -0.98 9.34 -2 9 C-2.495 6.525 -2.495 6.525 -3 4 C-5.31 4.99 -7.62 5.98 -10 7 C-9.34 9.31 -8.68 11.62 -8 14 C-8.99 14 -9.98 14 -11 14 C-11.66 12.35 -12.32 10.7 -13 9 C-15.31 10.32 -17.62 11.64 -20 13 C-19.5359375 13.8971875 -19.5359375 13.8971875 -19.0625 14.8125 C-18 17 -18 17 -17 20 C-19.06409569 19.48397608 -21.06054677 18.97798299 -23.0625 18.25 C-23.701875 18.1675 -24.34125 18.085 -25 18 C-26.77190909 19.35444301 -26.77190909 19.35444301 -28 21 C-27.29183001 24.09324029 -27.29183001 24.09324029 -24.9375 25.5 C-23.9784375 26.2425 -23.9784375 26.2425 -23 27 C-23 27.99 -23 28.98 -23 30 C-23.7425 29.690625 -24.485 29.38125 -25.25 29.0625 C-28.1643216 27.87150994 -28.1643216 27.87150994 -32 27 C-32.99 29.64 -33.98 32.28 -35 35 C-33.02 35.66 -31.04 36.32 -29 37 C-29 37.66 -29 38.32 -29 39 C-31.31 38.67 -33.62 38.34 -36 38 C-36.33 40.97 -36.66 43.94 -37 47 C-34.36 47 -31.72 47 -29 47 C-29 48.32 -29 49.64 -29 51 C-31.64 51 -34.28 51 -37 51 C-36.67 54.3 -36.34 57.6 -36 61 C-33.36 60.34 -30.72 59.68 -28 59 C-28 59.99 -28 60.98 -28 62 C-31.465 62.99 -31.465 62.99 -35 64 C-33.68 66.97 -32.36 69.94 -31 73 C-29.02 72.01 -29.02 72.01 -27 71 C-25.6757713 70.63215869 -24.34386088 70.28797019 -23 70 C-24.36983503 73.16115776 -24.9890638 73.9927092 -28 76 C-26.56179563 81.27341601 -22.9961885 84.49391009 -19 88 C-18.34 88.33 -17.68 88.66 -17 89 C-17 89.66 -17 90.32 -17 91 C-16.34 91.33 -15.68 91.66 -15 92 C-20.80528917 92 -22.99999287 88.92248761 -27 85 C-27.54140625 84.47148437 -28.0828125 83.94296875 -28.640625 83.3984375 C-39.05197807 72.2747287 -41.71608903 58.49251894 -41.375 43.83984375 C-40.63732414 30.43258491 -33.80090777 19.38867479 -24.3125 10.25 C-19.09946537 5.75435545 -7.2713543 -3.63567715 0 0 Z "
          fill="#CA911C" transform="translate(163,47)"/>
    <path d="M0 0 C2.97 0 5.94 0 9 0 C9 15.84 9 31.68 9 48 C6.03 48 3.06 48 0 48 C0 32.16 0 16.32 0 0 Z " fill="#EFE6D0"
          transform="translate(61,82)"/>
    <path d="M0 0 C0 4.30724257 -2.52000541 6.55117057 -5.125 9.75 C-5.62837891 10.38107666 -6.13175781 11.01215332 -6.65039062 11.66235352 C-9.18906142 14.82955007 -11.78144023 17.92224462 -14.5 20.9375 C-16.54159437 23.43845311 -17.49620282 24.88047876 -18.625 27.75 C-20.06434224 31.15208166 -20.69064514 32.43724909 -24 34 C-28.35802608 34.6338947 -30.26914026 34.49760663 -33.9375 32 C-36.24406697 28.6449935 -36.70685534 26.90909942 -36.40625 22.93359375 C-35.7026198 19.58458461 -34.66346536 18.1437648 -32 16 C-30.7109375 15.9484375 -29.421875 15.896875 -28.09375 15.84375 C-21.32302896 15.22736114 -16.38980941 11.2111173 -10.9375 7.4375 C-9.88111328 6.72658203 -8.82472656 6.01566406 -7.73632812 5.28320312 C-5.14670825 3.53726031 -2.56890492 1.7762179 0 0 Z "
          fill="#DD4821" transform="translate(201,75)"/>
    <path d="M0 0 C0.99 0.33 1.98 0.66 3 1 C-6.07681354 7.77029889 -15.27857403 14.31578516 -24.65161133 20.6706543 C-25.42013428 21.19183838 -26.18865723 21.71302246 -26.98046875 22.25 C-27.99983521 22.93835938 -27.99983521 22.93835938 -29.03979492 23.640625 C-31.06483704 25.00024509 -31.06483704 25.00024509 -33.0637207 26.734375 C-33.70269287 27.15203125 -34.34166504 27.5696875 -35 28 C-38.60513612 26.79828796 -38.97278863 25.90439696 -40.91796875 22.74609375 C-41.44970703 21.89208984 -41.98144531 21.03808594 -42.52929688 20.15820312 C-43.07650391 19.26037109 -43.62371094 18.36253906 -44.1875 17.4375 C-44.74630859 16.53580078 -45.30511719 15.63410156 -45.88085938 14.70507812 C-47.26160292 12.47464624 -48.63421377 10.23961101 -50 8 C-53.7995411 9.34853742 -56.65648865 11.05151653 -59.8359375 13.51953125 C-60.73570312 14.21240234 -61.63546875 14.90527344 -62.5625 15.61914062 C-63.490625 16.34294922 -64.41875 17.06675781 -65.375 17.8125 C-68.09635777 19.91831256 -70.81951815 22.02149734 -73.54980469 24.11572266 C-75.07054393 25.28521902 -76.58328738 26.46528995 -78.08300781 27.66162109 C-82.47529413 31.05012358 -82.47529413 31.05012358 -85.05224609 30.80395508 C-88.23975224 29.48827975 -89.34077609 26.90364184 -91 24 C-91 23.34 -91 22.68 -91 22 C-96.80137 24.59355365 -102.13833746 27.66043587 -107.375 31.25 C-116.0645538 37.19554577 -125.08839685 42.58728169 -134.10107422 48.02246094 C-134.68848389 48.37680206 -135.27589355 48.73114319 -135.88110352 49.09622192 C-137.57435782 50.11637379 -139.26933311 51.13366744 -140.96435547 52.15087891 C-143.58415951 53.74669648 -146.15523202 55.39634137 -148.72265625 57.07421875 C-149.80417969 57.70972656 -150.88570312 58.34523437 -152 59 C-152.66 58.67 -153.32 58.34 -154 58 C-152.92130607 57.03644756 -151.83681257 56.07938583 -150.75 55.125 C-150.14671875 54.59132812 -149.5434375 54.05765625 -148.921875 53.5078125 C-146.99076126 51.99275172 -145.21650002 51.04492144 -143 50 C-130.9603159 43.6714481 -119.72774589 36.29000378 -108.46875 28.671875 C-106.64676622 27.44652841 -104.82391657 26.22246781 -103 25 C-102.21471924 24.46906738 -101.42943848 23.93813477 -100.62036133 23.39111328 C-99.9167749 22.92946777 -99.21318848 22.46782227 -98.48828125 21.9921875 C-97.88798096 21.59370605 -97.28768066 21.19522461 -96.66918945 20.78466797 C-95 20 -95 20 -91.6875 20.375 C-88.63678189 22.21962025 -87.51180931 23.80840257 -86 27 C-81.89827309 26.41403901 -79.04836834 24.0907365 -75.8125 21.6875 C-74.57731362 20.78708688 -73.34161161 19.8873808 -72.10546875 18.98828125 C-71.12006104 18.26825928 -71.12006104 18.26825928 -70.11474609 17.53369141 C-66.31201043 14.77580807 -62.46649854 12.07848645 -58.625 9.375 C-57.15880918 8.34120963 -55.69265948 7.30736094 -54.2265625 6.2734375 C-53.16179687 5.52320313 -52.09703125 4.77296875 -51 4 C-46.65002512 7.97376084 -43.72088701 12.28381842 -40.6875 17.3125 C-40.23310547 18.05306641 -39.77871094 18.79363281 -39.31054688 19.55664062 C-38.20079596 21.36728686 -37.09952019 23.18312295 -36 25 C-34.989375 24.21625 -33.97875 23.4325 -32.9375 22.625 C-28.37124537 19.19627523 -23.63832241 16.04664042 -18.86987305 12.90942383 C-15.62037197 10.76670436 -12.40493781 8.59508018 -9.24609375 6.3203125 C-8.65658936 5.89854736 -8.06708496 5.47678223 -7.4597168 5.04223633 C-5.83754145 3.87546534 -4.22321951 2.69779832 -2.609375 1.51953125 C-1.74828125 1.01808594 -0.8871875 0.51664063 0 0 Z "
          fill="#C99017" transform="translate(203,152)"/>
    <path d="M0 0 C9 1 9 1 11.52734375 3.09765625 C14.38204728 8.72376957 13.75707931 14.89646678 13 21 C11.76706001 24.3124609 11.01781916 24.8623781 8 27 C4.04 27.495 4.04 27.495 0 28 C0 18.76 0 9.52 0 0 Z "
          fill="#112024" transform="translate(90,92)"/>
    <path d="M0 0 C0.33 0.66 0.66 1.32 1 2 C1.66 2.33 2.32 2.66 3 3 C2.34 5.97 1.68 8.94 1 12 C3.64 12 6.28 12 9 12 C9 13.32 9 14.64 9 16 C6.36 16 3.72 16 1 16 C1.33 19.3 1.66 22.6 2 26 C4.64 25.34 7.28 24.68 10 24 C10 24.99 10 25.98 10 27 C7.69 27.66 5.38 28.32 3 29 C4.32 31.97 5.64 34.94 7 38 C8.32 37.34 9.64 36.68 11 36 C12.3242287 35.63215869 13.65613912 35.28797019 15 35 C13.63016497 38.16115776 13.0109362 38.9927092 10 41 C11.43820437 46.27341601 15.0038115 49.49391009 19 53 C19.66 53.33 20.32 53.66 21 54 C21 54.66 21 55.32 21 56 C21.66 56.33 22.32 56.66 23 57 C17.19471083 57 15.00000713 53.92248761 11 50 C10.45859375 49.47148437 9.9171875 48.94296875 9.359375 48.3984375 C0.22178403 38.63564294 -3.36376759 26.3129809 -3.3125 13.25 C-3.32861328 12.41339844 -3.34472656 11.57679687 -3.36132812 10.71484375 C-3.36618741 4.62129484 -3.36618741 4.62129484 -1.48046875 1.421875 C-0.99191406 0.95265625 -0.50335938 0.4834375 0 0 Z "
          fill="#C08B1D" transform="translate(125,82)"/>
    <path d="M0 0 C2.32806869 5.55942804 2.38350572 10.75801341 2.375 16.6875 C2.37556396 17.66614014 2.37612793 18.64478027 2.37670898 19.65307617 C2.27425659 26.37854371 2.09760105 34.90239895 -3 40 C-4.51928038 40.07179964 -6.04167482 40.08392007 -7.5625 40.0625 C-8.38878906 40.05347656 -9.21507812 40.04445312 -10.06640625 40.03515625 C-10.70449219 40.02355469 -11.34257812 40.01195312 -12 40 C-12 39.67 -12 39.34 -12 39 C-8.535 38.505 -8.535 38.505 -5 38 C-4.67 36.35 -4.34 34.7 -4 33 C-7.465 31.515 -7.465 31.515 -11 30 C-11 29.34 -11 28.68 -11 28 C-8.36 28.33 -5.72 28.66 -3 29 C-2.34 25.37 -1.68 21.74 -1 18 C-3.64 18 -6.28 18 -9 18 C-9 17.01 -9 16.02 -9 15 C-5.535 14.505 -5.535 14.505 -2 14 C-2.33 10.7 -2.66 7.4 -3 4 C-5.97 4.66 -8.94 5.32 -12 6 C-11 3 -11 3 -8.25 1.3125 C-5.14979295 0.06049331 -3.28328088 -0.28970125 0 0 Z "
          fill="#C08A1D" transform="translate(220,78)"/>
    <path d="M0 0 C7.58954531 0.44644384 14.01639737 3.11500562 21 6 C20.25531915 13.74468085 20.25531915 13.74468085 17 17 C16.34 17 15.68 17 15 17 C15.54723683 13.62537285 16.0549 11.91765 18 9 C15.03 8.34 12.06 7.68 9 7 C8.67 8.65 8.34 10.3 8 12 C7.01 12 6.02 12 5 12 C5.33 9.69 5.66 7.38 6 5 C3.69 5 1.38 5 -1 5 C-1.33 7.97 -1.66 10.94 -2 14 C-2.99 14 -3.98 14 -5 14 C-5 10.04 -5 6.08 -5 2 C-3.68 2 -2.36 2 -1 2 C-0.67 1.34 -0.34 0.68 0 0 Z "
          fill="#C9921D" transform="translate(176,45)"/>
    <path d="M0 0 C4.29 0 8.58 0 13 0 C12.14110209 3.43559164 11.38109923 5.33592409 9.5625 8.25 C9.13066406 8.95640625 8.69882813 9.6628125 8.25390625 10.390625 C7.63322266 11.18726563 7.63322266 11.18726563 7 12 C6.34 12 5.68 12 5 12 C5.33 10.35 5.66 8.7 6 7 C5.37996094 7.31453125 4.75992188 7.6290625 4.12109375 7.953125 C-6.29314485 12.98591571 -17.3129916 16.82014094 -29 16 C-28.67 15.01 -28.34 14.02 -28 13 C-27.319375 12.91363281 -26.63875 12.82726562 -25.9375 12.73828125 C-16.64401264 11.39121992 -6.47303206 9.23651603 2 5 C1.01 4.67 0.02 4.34 -1 4 C-0.67 2.68 -0.34 1.36 0 0 Z "
          fill="#0F282F" transform="translate(178,219)"/>
    <path d="M0 0 C-0.33 4.62 -0.66 9.24 -1 14 C-1.99 14.33 -2.98 14.66 -4 15 C-4.33 13.35 -4.66 11.7 -5 10 C-5.81791016 11.12535156 -5.81791016 11.12535156 -6.65234375 12.2734375 C-11.75545862 19.19971648 -17.07385658 25.7452559 -23 32 C-23.68449219 32.7528125 -24.36898437 33.505625 -25.07421875 34.28125 C-27 36 -27 36 -30 36 C-30 35.34 -30 34.68 -30 34 C-28.35502017 32.62918348 -26.70965538 31.25882664 -25.0625 29.890625 C-18.27604259 23.66970571 -13.1540049 15.5699447 -8 8 C-9.65 8.33 -11.3 8.66 -13 9 C-13 8.01 -13 7.02 -13 6 C-10.91796875 4.39453125 -10.91796875 4.39453125 -8.1875 2.8125 C-7.29417969 2.28269531 -6.40085938 1.75289062 -5.48046875 1.20703125 C-3 0 -3 0 0 0 Z "
          fill="#0D2227" transform="translate(239,172)"/>
    <path d="M0 0 C-0.47939368 4.71403788 -0.96834048 8.66579301 -3 13 C-3.66 13 -4.32 13 -5 13 C-5.33 11.35 -5.66 9.7 -6 8 C-6.65484375 8.61746094 -7.3096875 9.23492187 -7.984375 9.87109375 C-14.67640698 16.08107258 -21.59819801 21.65210118 -29 27 C-29.66 26.34 -30.32 25.68 -31 25 C-25.20319827 19.74709572 -19.26717484 14.70800408 -13.1875 9.78515625 C-12.09434809 8.89306621 -10.99769879 7.99769879 -10 7 C-11.32 6.67 -12.64 6.34 -14 6 C-13.4375 4.125 -13.4375 4.125 -12 2 C-7.92893763 0.46375005 -4.34409038 -0.2632782 0 0 Z "
          fill="#0E252B" transform="translate(205,177)"/>
    <path d="M0 0 C7.17118308 0.34699273 7.17118308 0.34699273 10.0625 2.625 C11.44114178 6.11755918 10.97696252 8.4178041 10 12 C8.375 13.9375 8.375 13.9375 6 15 C3.66705307 15.04246263 1.33287546 15.04622247 -1 15 C-1.02685412 12.68756208 -1.04632841 10.3750373 -1.0625 8.0625 C-1.07410156 6.77472656 -1.08570313 5.48695312 -1.09765625 4.16015625 C-1 1 -1 1 0 0 Z "
          fill="#222F30" transform="translate(35,90)"/>
    <path d="M0 0 C8.3617422 2.35173999 15.96306621 10.81269073 20.2578125 18.1484375 C23 23.46022727 23 23.46022727 23 26 C21.68 26 20.36 26 19 26 C18.01 24.02 17.02 22.04 16 20 C15.34 20.99 14.68 21.98 14 23 C13.01 22.67 12.02 22.34 11 22 C11.99 20.02 12.98 18.04 14 16 C13.34 15.67 12.68 15.34 12 15 C11.67 14.34 11.34 13.68 11 13 C9.02 13.66 7.04 14.32 5 15 C5.33 13.68 5.66 12.36 6 11 C6.66 11 7.32 11 8 11 C5.42215154 8.35247996 3.08351902 6.05567935 0 4 C0 2.68 0 1.36 0 0 Z "
          fill="#BE891C" transform="translate(196,52)"/>
    <path d="M0 0 C0.66 0.66 1.32 1.32 2 2 C-4.40871704 7.29700082 -10.87408462 12.50518703 -17.43603516 17.61035156 C-20.74756472 20.19649846 -24.01241766 22.82703779 -27.23828125 25.51953125 C-27.94831299 26.10895508 -28.65834473 26.69837891 -29.38989258 27.30566406 C-30.76436073 28.45002051 -32.13302469 29.60139606 -33.49487305 30.76074219 C-37.18879134 33.827605 -40.24070758 35.81752148 -45 37 C-41.39841833 33.31838318 -37.6612708 29.85275913 -33.75 26.5 C-33.15227783 25.98735596 -32.55455566 25.47471191 -31.9387207 24.9465332 C-25.12307507 19.16586569 -18.00412097 13.79114914 -10.86914062 8.4140625 C-7.21499706 5.64959025 -3.60677754 2.82582286 0 0 Z "
          fill="#E8BD45" transform="translate(118,153)"/>
    <path d="M0 0 C-0.50797009 4.3177458 -1.19682779 8.03302114 -3 12 C-3.66 12 -4.32 12 -5 12 C-5 10.35 -5 8.7 -5 7 C-11.46763296 12.50464536 -17.0588897 18.07917332 -22 25 C-22.66 24.67 -23.32 24.34 -24 24 C-20.76869896 16.87213005 -14.53174141 11.39682089 -9 6 C-9.99 5.67 -10.98 5.34 -12 5 C-11.67 4.01 -11.34 3.02 -11 2 C-7.12137916 0.60955102 -4.13537997 0 0 0 Z "
          fill="#0E252B" transform="translate(51,26)"/>
    <path d="M0 0 C-3.00653533 1.69723769 -5.46288547 2.28821 -8.875 2.6875 C-24.51983806 5.43732506 -36.40230085 15.44025198 -45.5625 27.9375 C-46.71502616 29.62043605 -47.86159504 31.30747986 -49 33 C-49.99166772 34.33954205 -50.98872445 35.6751983 -52 37 C-50.47087634 26.4849151 -41.92848237 17.50652629 -34 11 C-23.23724297 3.518878 -13.21320378 -0.66683458 0 0 Z "
          fill="#6D7C7E" transform="translate(170,36)"/>
    <path d="M0 0 C0.33 0.66 0.66 1.32 1 2 C0.10110067 4.63840434 -0.86662757 7.17394993 -1.9296875 9.74609375 C-2.2394754 10.51301041 -2.54926331 11.27992706 -2.86843872 12.07008362 C-3.86339173 14.52889692 -4.86891659 16.98322262 -5.875 19.4375 C-6.87159 21.88911139 -7.86604786 24.34157875 -8.86013794 26.79420471 C-9.48030166 28.32197227 -10.10237264 29.84896728 -10.72653198 31.37510681 C-11.89342235 34.23238164 -13.02367393 37.07102179 -14 40 C-14.66 40 -15.32 40 -16 40 C-17.65 34.72 -19.3 29.44 -21 24 C-22.65 24.66 -24.3 25.32 -26 26 C-26.99 26 -27.98 26 -29 26 C-25.86243419 22.39760962 -25.02137798 22.0042756 -20 21 C-18.35 25.29 -16.7 29.58 -15 34 C-14.33613281 32.38351563 -13.67226562 30.76703125 -12.98828125 29.1015625 C-12.09654761 26.94262842 -11.20460962 24.78377874 -10.3125 22.625 C-9.87744141 21.56410156 -9.44238281 20.50320312 -8.99414062 19.41015625 C-6.25436013 12.79409371 -3.30473312 6.35327159 0 0 Z "
          fill="#C33B18" transform="translate(234,126)"/>
    <path d="M0 0 C4.12751449 0.60698743 7.3321148 2.03810791 11 4 C10.875 5.75 10.875 5.75 10 8 C7.1875 10.3125 7.1875 10.3125 4 12 C1.625 11.75 1.625 11.75 0 11 C1.32 10.01 2.64 9.02 4 8 C-4.25 7.67 -12.5 7.34 -21 7 C-21 6.34 -21 5.68 -21 5 C-13.08 4.67 -5.16 4.34 3 4 C2.01 3.34 1.02 2.68 0 2 C0 1.34 0 0.68 0 0 Z "
          fill="#0B1C1F" transform="translate(144,190)"/>
    <path d="M0 0 C1.4589426 0.47730838 2.91713496 0.95691042 4.375 1.4375 C5.18710938 1.70433594 5.99921875 1.97117187 6.8359375 2.24609375 C9 3 9 3 11 4 C10.43601004 7.50588356 9.33036227 8.98982392 6.625 11.25 C6.01914063 11.77078125 5.41328125 12.2915625 4.7890625 12.828125 C3 14 3 14 0 14 C1.875 10.125 1.875 10.125 3 9 C-3.93 8.505 -3.93 8.505 -11 8 C-11 7.34 -11 6.68 -11 6 C-6.71 5.34 -2.42 4.68 2 4 C1.01 3.01 0.02 2.02 -1 1 C-0.67 0.67 -0.34 0.34 0 0 Z "
          fill="#0C1F24" transform="translate(221,22)"/>
    <path d="M0 0 C3.95820859 0.56545837 6.6659053 1.80902348 10 4 C8.65289578 8.04131267 6.61571666 8.90288434 3 11 C2.01 11 1.02 11 0 11 C0.33 10.01 0.66 9.02 1 8 C-5.93 8 -12.86 8 -20 8 C-20 7.34 -20 6.68 -20 6 C-14.73216011 4.79592231 -9.4624635 4.59675179 -4.08203125 4.28125 C-1.09021522 4.19680764 -1.09021522 4.19680764 1 3 C0.67 2.01 0.34 1.02 0 0 Z "
          fill="#0D2126" transform="translate(71,149)"/>
    <path d="M0 0 C0.99 0.33 1.98 0.66 3 1 C-6.07681354 7.77029889 -15.27857403 14.31578516 -24.65161133 20.6706543 C-25.42013428 21.19183838 -26.18865723 21.71302246 -26.98046875 22.25 C-27.66004639 22.70890625 -28.33962402 23.1678125 -29.03979492 23.640625 C-31.06483704 25.00024509 -31.06483704 25.00024509 -33.0637207 26.734375 C-33.70269287 27.15203125 -34.34166504 27.5696875 -35 28 C-38 27 -38 27 -39.6875 23.9375 C-40.120625 22.968125 -40.55375 21.99875 -41 21 C-38.00667261 21.9977758 -37.05233685 22.7522025 -35 25 C-34.41734375 24.5153125 -33.8346875 24.030625 -33.234375 23.53125 C-27.74343451 19.0418018 -22.11687422 14.96735215 -16.171875 11.1015625 C-13.89288476 9.59159113 -11.66757454 8.0597267 -9.453125 6.4609375 C-8.86635986 6.04062256 -8.27959473 5.62030762 -7.67504883 5.18725586 C-6.01693879 3.99463744 -4.36570738 2.79247289 -2.71484375 1.58984375 C-1.81894531 1.06519531 -0.92304688 0.54054687 0 0 Z "
          fill="#C68A15" transform="translate(203,152)"/>
    <path d="M0 0 C-1.36983503 3.16115776 -1.9890638 3.9927092 -5 6 C-3.56179563 11.27341601 0.0038115 14.49391009 4 18 C4.66 18.33 5.32 18.66 6 19 C6 19.66 6 20.32 6 21 C6.66 21.33 7.32 21.66 8 22 C2.21016428 22 -0.0222664 18.93174824 -4 15 C-13 5.47651007 -13 5.47651007 -13 1 C-11.68 1 -10.36 1 -9 1 C-8.67 1.66 -8.34 2.32 -8 3 C-7.38125 2.690625 -6.7625 2.38125 -6.125 2.0625 C-2 0 -2 0 0 0 Z "
          fill="#C48C1B" transform="translate(140,117)"/>
    <path d="M0 0 C0.66 0.33 1.32 0.66 2 1 C2.5337405 9.49536955 1.62157497 16.24779334 -2 24 C-3 25 -3 25 -5.06640625 25.09765625 C-5.89011719 25.08605469 -6.71382812 25.07445313 -7.5625 25.0625 C-8.38878906 25.05347656 -9.21507812 25.04445313 -10.06640625 25.03515625 C-11.02353516 25.01775391 -11.02353516 25.01775391 -12 25 C-12 24.67 -12 24.34 -12 24 C-8.535 23.505 -8.535 23.505 -5 23 C-4.67 21.35 -4.34 19.7 -4 18 C-6.31 17.01 -8.62 16.02 -11 15 C-11 14.34 -11 13.68 -11 13 C-8.36 13.33 -5.72 13.66 -3 14 C-2.34 10.37 -1.68 6.74 -1 3 C-1.99 2.67 -2.98 2.34 -4 2 C-2.68 2 -1.36 2 0 2 C0 1.34 0 0.68 0 0 Z "
          fill="#C18E1E" transform="translate(220,93)"/>
    <path d="M0 0 C4 1 4 1 6 3 C6.30078125 5.8984375 6.30078125 5.8984375 6.3125 9.375 C6.32925781 10.51710938 6.34601563 11.65921875 6.36328125 12.8359375 C5.97321442 16.23329375 5.46275351 17.65836552 3 20 C2.01 20 1.02 20 0 20 C0 13.4 0 6.8 0 0 Z "
          fill="#3696B8" transform="translate(93,96)"/>
    <path d="M0 0 C3.95820859 0.56545837 6.6659053 1.80902348 10 4 C9.875 5.75 9.875 5.75 9 8 C3.77777778 12 3.77777778 12 1 12 C1.33 10.68 1.66 9.36 2 8 C-5.26 7.67 -12.52 7.34 -20 7 C-20 6.34 -20 5.68 -20 5 C-12.41 4.67 -4.82 4.34 3 4 C2.01 3.34 1.02 2.68 0 2 C0 1.34 0 0.68 0 0 Z "
          fill="#0C1D21" transform="translate(63,227)"/>
    <path d="M0 0 C8 2 8 2 11 5 C11 5.99 11 6.98 11 8 C9.88625 7.5359375 9.88625 7.5359375 8.75 7.0625 C5.8356784 5.87150994 5.8356784 5.87150994 2 5 C1.01 7.64 0.02 10.28 -1 13 C0.98 13.66 2.96 14.32 5 15 C5 15.66 5 16.32 5 17 C1.26512223 16.5020163 -0.81237635 16.12508244 -4 14 C-4.99 14.495 -4.99 14.495 -6 15 C-3.10933941 4.44191344 -3.10933941 4.44191344 0 0 Z "
          fill="#C38C1B" transform="translate(129,69)"/>
    <path d="M0 0 C-1.28564178 3.85692534 -2.94406932 4.63483972 -6.25 6.9375 C-10.45403843 9.873778 -10.45403843 9.873778 -14.30859375 13.23828125 C-18.14568429 15.74993268 -21.33744561 15.44505686 -25.8125 15.25 C-26.99489258 15.22292969 -26.99489258 15.22292969 -28.20117188 15.1953125 C-30.13464261 15.14844048 -32.06748285 15.0767041 -34 15 C-34 14.01 -34 13.02 -34 12 C-32.92363281 12.04382812 -31.84726563 12.08765625 -30.73828125 12.1328125 C-18.70248196 12.24344837 -12.7162006 9.03285047 -4 1 C-2 0 -2 0 0 0 Z "
          fill="#112D35" transform="translate(130,29)"/>
    <path d="M0 0 C3.82097239 0.53069061 6.06171403 1.49701566 9 4 C7.52440331 8.42679007 5.09942632 8.91432696 1 11 C0.34 11 -0.32 11 -1 11 C-1 10.01 -1 9.02 -1 8 C-0.34 7.67 0.32 7.34 1 7 C-6.26 6.67 -13.52 6.34 -21 6 C-21 5.34 -21 4.68 -21 4 C-13.74 3.67 -6.48 3.34 1 3 C0.67 2.01 0.34 1.02 0 0 Z "
          fill="#0D2126" transform="translate(105,17)"/>
    <path d="M0 0 C0.4140625 2.28515625 0.4140625 2.28515625 0.625 5.0625 C0.69976562 5.98160156 0.77453125 6.90070312 0.8515625 7.84765625 C0.90054688 8.55792969 0.94953125 9.26820312 1 10 C0.01 9.67 -0.98 9.34 -2 9 C-2.33 7.35 -2.66 5.7 -3 4 C-6.465 5.485 -6.465 5.485 -10 7 C-9.34 9.31 -8.68 11.62 -8 14 C-8.99 14 -9.98 14 -11 14 C-13.49977543 10.66696609 -14 9.26696398 -14 5 C-10.59070764 1.48739575 -4.88084332 -2.44042166 0 0 Z "
          fill="#C68E1B" transform="translate(163,47)"/>
    <path d="M0 0 C0.66 0.33 1.32 0.66 2 1 C2 1.66 2 2.32 2 3 C0.38256349 4.19469742 -1.29890595 5.30276784 -3 6.375 C-9.09175098 10.31288189 -14.84894577 14.58791774 -20.56640625 19.05029297 C-21.21480469 19.54803223 -21.86320313 20.04577148 -22.53125 20.55859375 C-23.10423828 21.00517334 -23.67722656 21.45175293 -24.26757812 21.91186523 C-26.16233545 23.10196295 -27.81491608 23.57429156 -30 24 C-28.84360527 20.53081581 -27.9894813 19.98363344 -25.09765625 17.890625 C-24.29368408 17.30361816 -23.48971191 16.71661133 -22.66137695 16.11181641 C-21.80374756 15.49741699 -20.94611816 14.88301758 -20.0625 14.25 C-19.20035889 13.62399902 -18.33821777 12.99799805 -17.44995117 12.35302734 C-11.67835075 8.17241092 -5.88300575 4.02282656 0 0 Z "
          fill="#EDC047" transform="translate(158,136)"/>
    <path d="M0 0 C9.49398999 -0.24802877 18.84810263 0.09131905 28.3125 0.875 C29.82469116 0.99270752 29.82469116 0.99270752 31.36743164 1.11279297 C32.31481201 1.19674316 33.26219238 1.28069336 34.23828125 1.3671875 C35.08430908 1.44050293 35.93033691 1.51381836 36.80200195 1.58935547 C39 2 39 2 42 4 C34.21077603 4.12792521 26.46657872 3.94223087 18.6875 3.5625 C17.43501465 3.50364624 17.43501465 3.50364624 16.15722656 3.44360352 C11.06599731 3.18014201 6.0288808 2.85803503 1 2 C0.67 1.34 0.34 0.68 0 0 Z "
          fill="#DD5F37" transform="translate(194,121)"/>
    <path d="M0 0 C0 0.99 0 1.98 0 3 C-1.4765625 4.2890625 -1.4765625 4.2890625 -3.625 5.625 C-6.58262862 7.48168169 -9.52081393 9.34224857 -12.3984375 11.3203125 C-22.70847059 18.3204306 -22.70847059 18.3204306 -28.125 19.25 C-32.14074671 19.64546061 -32.14074671 19.64546061 -34.5625 22.625 C-35.036875 23.40875 -35.51125 24.1925 -36 25 C-35.3895923 19.50633066 -35.3895923 19.50633066 -33.70288086 17.31420898 C-32 16 -32 16 -28.06640625 15.78515625 C-21.29214829 15.23745029 -16.38288137 11.20632231 -10.9375 7.4375 C-9.88111328 6.72658203 -8.82472656 6.01566406 -7.73632812 5.28320312 C-5.14670825 3.53726031 -2.56890492 1.7762179 0 0 Z "
          fill="#EC653B" transform="translate(201,75)"/>
    <path d="M0 0 C3.21351132 4.28468175 3.36713595 5.03475523 3.29296875 10.078125 C3.28330078 11.23828125 3.27363281 12.3984375 3.26367188 13.59375 C3.23853516 14.8003125 3.21339844 16.006875 3.1875 17.25 C3.17396484 18.47203125 3.16042969 19.6940625 3.14648438 20.953125 C3.1111398 23.96919498 3.0617956 26.98437487 3 30 C2.01 30.33 1.02 30.66 0 31 C0 20.77 0 10.54 0 0 Z "
          fill="#2E839F" transform="translate(74,100)"/>
    <path d="M0 0 C0.66 0.33 1.32 0.66 2 1 C-2.74698093 7.41483909 -7.88236529 10.52719636 -15 14 C-15.77085938 14.38542969 -16.54171875 14.77085937 -17.3359375 15.16796875 C-18.15964844 15.57982422 -18.15964844 15.57982422 -19 16 C-14.00472237 9.69017562 -7.81091929 2.60363976 0 0 Z "
          fill="#F2B72B" transform="translate(75,189)"/>
    <path d="M0 0 C-1.1543157 3.46294709 -2.00568379 4.01130443 -4.875 6.125 C-9.6262566 9.68653584 -14.1742002 13.45196332 -18.71484375 17.27734375 C-21 19 -21 19 -23 19 C-21.42530227 14.72005233 -18.16708335 12.30552481 -14.75 9.5 C-14.18925781 9.02691406 -13.62851562 8.55382812 -13.05078125 8.06640625 C-3.37556267 0 -3.37556267 0 0 0 Z "
          fill="#10282E" transform="translate(72,172)"/>
    <path d="M0 0 C0 0.66 0 1.32 0 2 C-1.97192383 3.42041016 -1.97192383 3.42041016 -4.70703125 5.0390625 C-5.68607422 5.61914062 -6.66511719 6.19921875 -7.67382812 6.796875 C-8.70958984 7.40015625 -9.74535156 8.0034375 -10.8125 8.625 C-11.83666016 9.23601562 -12.86082031 9.84703125 -13.91601562 10.4765625 C-21.61494664 15 -21.61494664 15 -25 15 C-25 14.34 -25 13.68 -25 13 C-21.54216583 11.01996027 -18.08364869 9.04111656 -14.625 7.0625 C-13.64015625 6.49853516 -12.6553125 5.93457031 -11.640625 5.35351562 C-10.69960937 4.81533203 -9.75859375 4.27714844 -8.7890625 3.72265625 C-7.91975098 3.22515869 -7.05043945 2.72766113 -6.15478516 2.21508789 C-2.22664256 0 -2.22664256 0 0 0 Z "
          fill="#0F262C" transform="translate(101,199)"/>
    <path d="M0 0 C2.9719385 1.12451727 5.33440687 2.22293791 8 4 C7.375 5.875 7.375 5.875 6 8 C2.875 9.25 2.875 9.25 0 10 C0.33 9.01 0.66 8.02 1 7 C-1.31 6.67 -3.62 6.34 -6 6 C-6 5.34 -6 4.68 -6 4 C-4.02 3.67 -2.04 3.34 0 3 C0 2.01 0 1.02 0 0 Z "
          fill="#0D2025" transform="translate(68,45)"/>
    <path d="M0 0 C6.27 0 12.54 0 19 0 C18.67 0.99 18.34 1.98 18 3 C12.06 3 6.12 3 0 3 C0 2.01 0 1.02 0 0 Z "
          fill="#18424E" transform="translate(98,235)"/>
    <path d="M0 0 C2.5625 0.1875 2.5625 0.1875 4.5625 2.1875 C4.1875 4.8125 4.1875 4.8125 3.5625 7.1875 C1.1875 7.8125 1.1875 7.8125 -1.4375 8.1875 C-3.4375 6.1875 -3.4375 6.1875 -3.625 3.625 C-3.37291261 0.34786389 -3.27713611 0.25208739 0 0 Z "
          fill="#161C1C" transform="translate(173.4375,95.8125)"/>
    <path d="M0 0 C5.94 0 11.88 0 18 0 C18 0.99 18 1.98 18 3 C12.06 3 6.12 3 0 3 C0 2.01 0 1.02 0 0 Z " fill="#13323B"
          transform="translate(77,66)"/>
    <path d="M0 0 C0 1.65 0 3.3 0 5 C-0.88365234 5.16822266 -0.88365234 5.16822266 -1.78515625 5.33984375 C-4.1885595 6.05620204 -5.50220072 6.99370081 -7.4375 8.5625 C-9.90318552 10.41176414 -10.78074466 10.97667496 -13.9375 11.3125 C-14.9584375 11.1578125 -14.9584375 11.1578125 -16 11 C-13.0471143 7.82968091 -9.98237794 5.54306125 -6.3125 3.25 C-5.33925781 2.63640625 -4.36601562 2.0228125 -3.36328125 1.390625 C-1 0 -1 0 0 0 Z "
          fill="#E19030" transform="translate(202,133)"/>
    <path d="M0 0 C0.33 0.66 0.66 1.32 1 2 C1.66 2.33 2.32 2.66 3 3 C2.77139942 4.46184058 2.51629608 5.91955419 2.25 7.375 C2.04117188 8.59316406 2.04117188 8.59316406 1.828125 9.8359375 C1 12 1 12 -1.078125 13.2890625 C-2.02945313 13.64097656 -2.02945313 13.64097656 -3 14 C-3.08153933 12.41753293 -3.13943557 10.83383727 -3.1875 9.25 C-3.22230469 8.36828125 -3.25710937 7.4865625 -3.29296875 6.578125 C-2.94923684 3.55328417 -1.99772541 2.24416398 0 0 Z "
          fill="#C48C1B" transform="translate(125,82)"/>
    <path d="M0 0 C1.65322266 0.01740234 1.65322266 0.01740234 3.33984375 0.03515625 C4.99693359 0.04869141 4.99693359 0.04869141 6.6875 0.0625 C7.54214844 0.07410156 8.39679688 0.08570313 9.27734375 0.09765625 C8.94734375 1.08765625 8.61734375 2.07765625 8.27734375 3.09765625 C7.28734375 2.76765625 6.29734375 2.43765625 5.27734375 2.09765625 C4.94734375 2.75765625 4.61734375 3.41765625 4.27734375 4.09765625 C1.62873948 4.69121239 -1.01462947 4.83974894 -3.72265625 5.09765625 C-3.72265625 0.13352426 -3.72265625 0.13352426 0 0 Z "
          fill="#CE941B" transform="translate(166.72265625,44.90234375)"/>
    <path d="M0 0 C0.59167969 0.21011719 1.18335938 0.42023438 1.79296875 0.63671875 C-2.73135557 4.5326647 -2.73135557 4.5326647 -5.20703125 5.07421875 C-7.52943169 5.55141004 -7.52943169 5.55141004 -9.70703125 8.13671875 C-12.07263737 10.50232487 -12.98312487 11.27850693 -16.20703125 11.63671875 C-16.20703125 10.64671875 -16.20703125 9.65671875 -16.20703125 8.63671875 C-14.69109375 7.80140625 -14.69109375 7.80140625 -13.14453125 6.94921875 C-10.4244351 5.41847638 -7.98516533 3.73481832 -5.51953125 1.82421875 C-2.20703125 -0.36328125 -2.20703125 -0.36328125 0 0 Z "
          fill="#E2B037" transform="translate(186.20703125,144.36328125)"/>
    <path d="M0 0 C0.33 0.66 0.66 1.32 1 2 C0.34773438 2.08636719 -0.30453125 2.17273437 -0.9765625 2.26171875 C-7.21368731 3.26444236 -10.43905323 4.66710057 -15 9 C-15.66 9 -16.32 9 -17 9 C-16.62152066 6.50523477 -16.291148 5.27590085 -14.43359375 3.515625 C-9.32590948 0.27709329 -6.03527278 -0.53886364 0 0 Z "
          fill="#102B32" transform="translate(58,49)"/>
    <path d="M0 0 C0.66 0.33 1.32 0.66 2 1 C2 4.96 2 8.92 2 13 C1.01 13.33 0.02 13.66 -1 14 C-1 10.37 -1 6.74 -1 3 C-1.99 2.67 -2.98 2.34 -4 2 C-2.68 2 -1.36 2 0 2 C0 1.34 0 0.68 0 0 Z "
          fill="#C28B1A" transform="translate(220,93)"/>
    <path d="M0 0 C0.66 0 1.32 0 2 0 C2 4.29 2 8.58 2 13 C1.01 13 0.02 13 -1 13 C-1.02686553 11.02090602 -1.04633375 9.04171029 -1.0625 7.0625 C-1.07410156 5.96035156 -1.08570313 4.85820313 -1.09765625 3.72265625 C-1 1 -1 1 0 0 Z "
          fill="#111B1C" transform="translate(172,46)"/>
    <path d="M0 0 C0.66 0 1.32 0 2 0 C2.24234375 0.59167969 2.4846875 1.18335938 2.734375 1.79296875 C4.68819387 6.39947246 6.6061398 10.24251192 10 14 C6.69744449 13.75536626 5.74081575 12.74684329 3.3125 10.375 C0.73689701 7.11994346 0.24861056 4.14350932 0 0 Z "
          fill="#0F252C" transform="translate(20,150)"/>
    <path d="M0 0 C3.96 0 7.92 0 12 0 C12 0.99 12 1.98 12 3 C8.04 3 4.08 3 0 3 C0 2.01 0 1.02 0 0 Z " fill="#14353F"
          transform="translate(49,65)"/>
    <path d="M0 0 C0.66 1.32 1.32 2.64 2 4 C1.195625 4.61875 0.39125 5.2375 -0.4375 5.875 C-3.03874519 7.74164041 -3.03874519 7.74164041 -4 10 C-5.32 9.67 -6.64 9.34 -8 9 C-6.90101298 5.70303895 -6.05402613 4.95329411 -3.4375 2.8125 C-2.79683594 2.28269531 -2.15617188 1.75289062 -1.49609375 1.20703125 C-0.75552734 0.60955078 -0.75552734 0.60955078 0 0 Z "
          fill="#D0961D" transform="translate(138,60)"/>
    <path d="M0 0 C-0.93103324 2.32758311 -1.65382128 3.74357132 -3.6875 5.25 C-6.83545718 6.27095909 -9.71543368 6.12632947 -13 6 C-13 5.34 -13 4.68 -13 4 C-12.37351563 3.79503906 -11.74703125 3.59007812 -11.1015625 3.37890625 C-10.28429687 3.10949219 -9.46703125 2.84007812 -8.625 2.5625 C-7.81289062 2.29566406 -7.00078125 2.02882812 -6.1640625 1.75390625 C-1.12953368 0 -1.12953368 0 0 0 Z "
          fill="#E4A421" transform="translate(187,128)"/>
    <path d="M0 0 C3.7758544 0.52442422 6.22372155 1.32654667 9 4 C9 4.99 9 5.98 9 7 C5.56072421 5.7580393 2.74792181 4.44259716 0 2 C0 1.34 0 0.68 0 0 Z "
          fill="#23291E" transform="translate(131,70)"/>
    <path d="M0 0 C0.66 0.33 1.32 0.66 2 1 C-2.625 5.875 -2.625 5.875 -6 7 C-6.33 7.99 -6.66 8.98 -7 10 C-9.0625 11.6875 -9.0625 11.6875 -11 13 C-11.66 12.67 -12.32 12.34 -13 12 C-8.84792208 7.7373638 -4.63678779 3.73204871 0 0 Z "
          fill="#E3B63A" transform="translate(69,192)"/>
    <path d="M0 0 C2.97 0 5.94 0 9 0 C9.33 0.99 9.66 1.98 10 3 C6.37 3 2.74 3 -1 3 C-0.67 2.01 -0.34 1.02 0 0 Z "
          fill="#1D251D" transform="translate(125,94)"/>
    <path d="M0 0 C-1.50383297 4.21073233 -4.20664956 5.83237117 -8 8 C-8.99 8 -9.98 8 -11 8 C-11 7.34 -11 6.68 -11 6 C-9.1015625 4.4921875 -9.1015625 4.4921875 -6.625 2.875 C-5.81289062 2.33617187 -5.00078125 1.79734375 -4.1640625 1.2421875 C-2 0 -2 0 0 0 Z "
          fill="#0F262C" transform="translate(218,225)"/>
    <path d="M0 0 C1.875 0.625 1.875 0.625 4 2 C5.25 5.125 5.25 5.125 6 8 C5.01 8 4.02 8 3 8 C0.89229241 5.11165997 0 3.61537605 0 0 Z "
          fill="#1F271F" transform="translate(149,53)"/>
    <path d="M0 0 C0.33 0.99 0.66 1.98 1 3 C-3.10526316 8.70175439 -3.10526316 8.70175439 -7 10 C-6.42424336 6.64749299 -5.40693737 5.06181371 -2.9375 2.75 C-2.38964844 2.22921875 -1.84179688 1.7084375 -1.27734375 1.171875 C-0.64505859 0.59179688 -0.64505859 0.59179688 0 0 Z "
          fill="#102B33" transform="translate(230,210)"/>
    <path d="M0 0 C2.64 0.33 5.28 0.66 8 1 C8.33 1.99 8.66 2.98 9 4 C3.375 4.25 3.375 4.25 0 2 C0 1.34 0 0.68 0 0 Z "
          fill="#313420" transform="translate(209,106)"/>
    <path d="M0 0 C0 0.99 0 1.98 0 3 C-1.8984375 4.60546875 -1.8984375 4.60546875 -4.375 6.1875 C-5.18710938 6.71730469 -5.99921875 7.24710937 -6.8359375 7.79296875 C-9 9 -9 9 -11 9 C-11 8.34 -11 7.68 -11 7 C-9.21601386 5.71993203 -7.37146094 4.52339649 -5.5 3.375 C-3.96859375 2.42753906 -3.96859375 2.42753906 -2.40625 1.4609375 C-1.6121875 0.97882813 -0.818125 0.49671875 0 0 Z "
          fill="#D45D36" transform="translate(201,75)"/>
    <path d="M0 0 C0.99 0.33 1.98 0.66 3 1 C1.54634731 2.17249353 0.08692581 3.33783816 -1.375 4.5 C-2.18710938 5.1496875 -2.99921875 5.799375 -3.8359375 6.46875 C-6 8 -6 8 -8 8 C-6.49860488 3.79609368 -3.82724957 2.10889262 0 0 Z "
          fill="#C37014" transform="translate(203,152)"/>
    <path d="M0 0 C0.99 0 1.98 0 3 0 C1.52307692 5.66153846 1.52307692 5.66153846 -1.125 7.375 C-2.053125 7.684375 -2.053125 7.684375 -3 8 C-2.45276317 4.62537285 -1.9451 2.91765 0 0 Z "
          fill="#22281E" transform="translate(194,54)"/>
    <path d="M0 0 C3.79379058 1.49041773 5.68343758 3.69062512 8 7 C8 7.66 8 8.32 8 9 C4.20620942 7.50958227 2.31656242 5.30937488 0 2 C0 1.34 0 0.68 0 0 Z "
          fill="#0E242A" transform="translate(228,44)"/>
    <path d="M0 0 C0 0.66 0 1.32 0 2 C-1.28913487 2.67154933 -2.58140204 3.33708859 -3.875 4 C-4.59429687 4.37125 -5.31359375 4.7425 -6.0546875 5.125 C-8 6 -8 6 -10 6 C-9 3 -9 3 -6.125 1.3125 C-3 0 -3 0 0 0 Z "
          fill="#102A32" transform="translate(160,213)"/>
    <path d="M0 0 C1.32 0.33 2.64 0.66 4 1 C3.67 2.65 3.34 4.3 3 6 C2.01 6.33 1.02 6.66 0 7 C0 4.69 0 2.38 0 0 Z "
          fill="#3491B2" transform="translate(38,95)"/>
    <path d="M0 0 C0 0.99 0 1.98 0 3 C-1.6796875 4.38671875 -1.6796875 4.38671875 -3.875 5.6875 C-4.59429687 6.12449219 -5.31359375 6.56148438 -6.0546875 7.01171875 C-8 8 -8 8 -10 8 C-10 7.34 -10 6.68 -10 6 C-7.8125 4.4921875 -7.8125 4.4921875 -5 2.875 C-4.071875 2.33617188 -3.14375 1.79734375 -2.1875 1.2421875 C-1.465625 0.83226563 -0.74375 0.42234375 0 0 Z "
          fill="#E06139" transform="translate(189,83)"/>
    <path d="M0 0 C0 0.66 0 1.32 0 2 C-5.625 5 -5.625 5 -9 5 C-8 2 -8 2 -6.1875 0.8125 C-4 0 -4 0 0 0 Z " fill="#18221E"
          transform="translate(217,79)"/>
    <path d="M0 0 C0.99 0 1.98 0 3 0 C3.33 2.64 3.66 5.28 4 8 C3.01 7.67 2.02 7.34 1 7 C0.67 4.69 0.34 2.38 0 0 Z "
          fill="#272B1E" transform="translate(160,49)"/>
    <path d="M0 0 C2.64 0 5.28 0 8 0 C7.67 0.99 7.34 1.98 7 3 C4.69 3 2.38 3 0 3 C0 2.01 0 1.02 0 0 Z " fill="#18414C"
          transform="translate(21,193)"/>
    <path d="M0 0 C0 0.99 0 1.98 0 3 C-2.90600261 4.25664978 -4.79604584 5 -8 5 C-7.67 4.01 -7.34 3.02 -7 2 C-4.56723614 0.81480735 -2.71982714 0 0 0 Z "
          fill="#262B1E" transform="translate(135,106)"/>
    <path d="M0 0 C2.97 0 5.94 0 9 0 C9 0.66 9 1.32 9 2 C4.545 2.495 4.545 2.495 0 3 C0 2.01 0 1.02 0 0 Z "
          fill="#1E251E" transform="translate(211,93)"/>
    <path d="M0 0 C1.98 0 3.96 0 6 0 C6 0.66 6 1.32 6 2 C6.66 2.33 7.32 2.66 8 3 C5.03 3 2.06 3 -1 3 C-0.67 2.01 -0.34 1.02 0 0 Z "
          fill="#122F38" transform="translate(150,232)"/>
    <path d="M0 0 C-0.99 1.485 -0.99 1.485 -2 3 C-3.9453125 3.29296875 -3.9453125 3.29296875 -6.125 3.1875 C-7.40375 3.125625 -8.6825 3.06375 -10 3 C-10 2.34 -10 1.68 -10 1 C-6.59437148 0.22157062 -3.49234244 -0.09978121 0 0 Z "
          fill="#133139" transform="translate(61,154)"/>
    <path d="M0 0 C3.24271506 0.5590888 4.93057424 1.4132178 7 4 C7 4.66 7 5.32 7 6 C3.75728494 5.4409112 2.06942576 4.5867822 0 2 C0 1.34 0 0.68 0 0 Z "
          fill="#19221D" transform="translate(139,61)"/>
    <path d="M0 0 C0.66 0.66 1.32 1.32 2 2 C1.04454634 3.46022163 0.08553322 4.91811468 -0.875 6.375 C-1.40867187 7.18710938 -1.94234375 7.99921875 -2.4921875 8.8359375 C-4 11 -4 11 -6 13 C-5.51675181 7.84535266 -2.81389239 4.18449681 0 0 Z "
          fill="#667577" transform="translate(124,60)"/>
    <path d="M0 0 C0 0.66 0 1.32 0 2 C-3.63 2.33 -7.26 2.66 -11 3 C-10 1 -10 1 -8.3125 0.375 C-5.51555886 -0.07855802 -2.82858003 -0.06428591 0 0 Z "
          fill="#102A32" transform="translate(151,18)"/>
    <path d="M0 0 C-1.36983503 3.16115776 -1.9890638 3.9927092 -5 6 C-5.99 6 -6.98 6 -8 6 C-8 5.34 -8 4.68 -8 4 C-2.58823529 0 -2.58823529 0 0 0 Z "
          fill="#102930" transform="translate(206,211)"/>
    <path d="M0 0 C0.66 0.33 1.32 0.66 2 1 C1 4 1 4 -2 6 C-2.99 6 -3.98 6 -5 6 C-5 5.01 -5 4.02 -5 3 C-2.625 1.25 -2.625 1.25 0 0 Z "
          fill="#EBB835" transform="translate(175,150)"/>
    <path d="M0 0 C2.31 0.33 4.62 0.66 7 1 C7.33 1.99 7.66 2.98 8 4 C2.25 3.125 2.25 3.125 0 2 C0 1.34 0 0.68 0 0 Z "
          fill="#21271E" transform="translate(126,82)"/>
    <path d="M0 0 C0.99 0.33 1.98 0.66 3 1 C3.73046875 2.84765625 3.73046875 2.84765625 4.1875 5.0625 C4.34605469 5.79597656 4.50460938 6.52945313 4.66796875 7.28515625 C4.83232422 8.13400391 4.83232422 8.13400391 5 9 C4.34 9 3.68 9 3 9 C0 3.375 0 3.375 0 0 Z "
          fill="#112D35" transform="translate(237,58)"/>
    <path d="M0 0 C-1.0975223 2.99324263 -1.67682892 3.84610901 -4.625 5.25 C-5.40875 5.4975 -6.1925 5.745 -7 6 C-5.52522876 2.59668175 -4.14385429 0 0 0 Z "
          fill="#1B221D" transform="translate(140,117)"/>
    <path d="M0 0 C0.66 0 1.32 0 2 0 C1.67 2.31 1.34 4.62 1 7 C0.01 7 -0.98 7 -2 7 C-1.125 2.25 -1.125 2.25 0 0 Z "
          fill="#242B1F" transform="translate(183,50)"/>
    <path d="M0 0 C0 0.66 0 1.32 0 2 C-2.64 2.33 -5.28 2.66 -8 3 C-8 2.34 -8 1.68 -8 1 C-5.07175348 0.02391783 -3.04386724 -0.08226668 0 0 Z "
          fill="#0C1C20" transform="translate(164,231)"/>
    <path d="M0 0 C0.99 0.33 1.98 0.66 3 1 C0.6875 3.0625 0.6875 3.0625 -2 5 C-2.99 4.67 -3.98 4.34 -5 4 C-2.6875 1.9375 -2.6875 1.9375 0 0 Z "
          fill="#0F262C" transform="translate(168,206)"/>
    <path d="M0 0 C0.33 0.99 0.66 1.98 1 3 C-3.75 6 -3.75 6 -6 6 C-6 5.34 -6 4.68 -6 4 C-4.03852126 2.61061923 -2.03833424 1.2739589 0 0 Z "
          fill="#D19416" transform="translate(177,170)"/>
    <path d="M0 0 C2.64 0.66 5.28 1.32 8 2 C8 2.66 8 3.32 8 4 C5.69 3.67 3.38 3.34 1 3 C0.67 2.01 0.34 1.02 0 0 Z "
          fill="#112930" transform="translate(33,165)"/>
    <path d="M0 0 C1.65 0 3.3 0 5 0 C5 0.99 5 1.98 5 3 C3.02 3 1.04 3 -1 3 C-0.67 2.01 -0.34 1.02 0 0 Z " fill="#17404D"
          transform="translate(155,17)"/>
    <path d="M0 0 C1.98 0 3.96 0 6 0 C6 0.99 6 1.98 6 3 C4.35 3 2.7 3 1 3 C0.67 2.01 0.34 1.02 0 0 Z " fill="#163B46"
          transform="translate(46,168)"/>
    <path d="M0 0 C0.66 0 1.32 0 2 0 C2.66 2.31 3.32 4.62 4 7 C3.01 7 2.02 7 1 7 C0.67 4.69 0.34 2.38 0 0 Z "
          fill="#122F38" transform="translate(20,150)"/>
    <path d="M0 0 C0.66 0 1.32 0 2 0 C1.1875 2.9375 1.1875 2.9375 0 6 C-0.99 6.33 -1.98 6.66 -3 7 C-1.125 1.125 -1.125 1.125 0 0 Z "
          fill="#112C33" transform="translate(24,54)"/>
    <path d="M0 0 C2.97 0.495 2.97 0.495 6 1 C6 1.66 6 2.32 6 3 C4.02 3 2.04 3 0 3 C0 2.01 0 1.02 0 0 Z " fill="#102D35"
          transform="translate(166,17)"/>
</svg>
