<svg xmlns="http://www.w3.org/2000/svg" width="24" height="24"
     viewBox="0 0 24 24" fill="none" stroke="#000000"
     stroke-width="2" stroke-linecap="round" stroke-linejoin="round">

    <!-- Database (cylinder) -->
    <ellipse cx="8" cy="7" rx="5" ry="2.5"/>
    <path d="M3 7v5c0 1.4 2.2 2.5 5 2.5s5-1.1 5-2.5V7"/>
    <path d="M3 12v5c0 1.4 2.2 2.5 5 2.5s5-1.1 5-2.5v-5"/>

    <!-- Gear (management) -->
    <g transform="translate(13,10)">
        <circle cx="6" cy="6" r="2"/>
        <path d="M6 3 v1"/>
        <path d="M6 8 v1"/>
        <path d="M3 6 h1"/>
        <path d="M8 6 h1"/>
        <path d="M3.8 3.8 l0.7 0.7"/>
        <path d="M7.5 7.5 l0.7 0.7"/>
        <path d="M3.8 8.2 l0.7-0.7"/>
        <path d="M7.5 4.5 l0.7-0.7"/>
    </g>

</svg>
