<svg xmlns="http://www.w3.org/2000/svg" width="2250" height="700" viewBox="-25 0 1125 350">

    <style>
        .fill { fill:#000000 }
        .line { stroke:#000000; stroke-width:2; fill:none; }
        .block { stroke:#000000; stroke-width:2; fill:none; }
        .text { fill:#000000; font-family:Arial, sans-serif; font-size:14px; text-anchor:middle;
        dominant-baseline:middle; }
    </style>

    <!-- Arrow -->
    <defs>
        <path id="arrow" class="fill" d=" M0 0 L-5 2 L-5 -2" transform="scale(1.5)"/>
    </defs>

    <!-- Input -->
    <path class="line" d="M0 125 H90" />
    <text class="text" x="75" y="115">r</text>

    <!-- sum -->
    <g transform="translate(95 125)">
        <circle class="block" cx="0" cy="0" r="5"/>
        <use href="#arrow" transform="translate(-5 0)"/>
        <use href="#arrow" transform="translate(0 5) rotate(-90 0 0)"/>
        <line class="line" x1="-5" y1="10" x2="-10" y2="10"/>
    </g>

    <!-- l -->
    <g transform="translate(675 125)">
        <!-- sum -->
        <g transform="translate(55 0)">
            <circle class="block" cx="0" cy="0" r="5"/>
            <use href="#arrow" transform="translate(0 -5) rotate(90 0 0)"/>
        </g>
        <path class="line" d="M60 0 H95"/>
        <use href="#arrow" transform="translate(100 0)"/>

        <path class="line" d="M55 -10 V-100"/>

        <text class="text" x="65" y="-20">l</text>
    </g>

    <!-- Plant -->
    <g transform="translate(775 125)">
        <rect class="block" height="50" width="100" x="0" y="-25"/>
        <text class="text" x="50" y="5">G(s)</text>
    </g>

    <!-- n -->
    <g transform="translate(875 125)">
        <path class="line" d="M0 0 H40"/>
        <!-- sum -->
        <g transform="translate(50 0)">
            <circle class="block" cx="0" cy="0" r="5"/>
            <use href="#arrow" transform="translate(-5 0)"/>
            <use href="#arrow" transform="translate(0 -5) rotate(90 0 0)"/>
        </g>
        <path class="line" d="M55 0 H145"/>
        <use href="#arrow" transform="translate(150 0)"/>

        <path class="line" d="M50 -10 V-100"/>

        <text class="text" x="60" y="-20">n</text>
    </g>

    <!-- Output -->
    <path class="line" d="M975 125 H995 M975 125 V300 H95 V135"/>
    <text class="text" x="1000" y="115">y</text>
    <!-- Node -->
    <circle class="fill" cx="975" cy="125" r="4"/>
</svg>