<svg xmlns="http://www.w3.org/2000/svg" width="500" height="150" viewBox="-10 -10 500 150">

    <style>
        .fill { fill:#000000 }
        .line { stroke:#000000; stroke-width:2; fill:none; }
        .block { stroke:#000000; stroke-width:2; fill:none; }
        .text { fill:#000000; font-family:Arial, sans-serif; font-size:14px; text-anchor:middle;
        dominant-baseline:middle; }
    </style>

    <!-- Arrow -->
    <defs>
        <path id="arrow" class="fill" d=" M0 0 L-5 2 L-5 -2" transform="scale(1.5)"/>
    </defs>

    <!-- Rect -->
    <defs>
        <rect id="rect" class="block" width="50" height="50"/>
    </defs>

    <!-- Integrator -->
    <defs>
        <g id="integrator">
            <use href="#rect"/>
            <text class="text" x="25" y="17.5">1</text>
            <path class="line" d="M17.5 25 H32.5"/>
            <text class="text" x="25" y="40">s</text>
        </g>
    </defs>

    <!-- Constraint -->
    <defs>
        <g id="constraint">
            <use href="#rect"/>
            <path class="line" d="M7 40 H20 L30 10 H43"/>
            <path class="line" d="M5 25 H45" style="stroke-width:0.7"/>
            <path class="line" d="M25 5 V45" style="stroke-width:0.7"/>
        </g>
    </defs>

    <!-- Decider -->
    <defs>
        <g id="decider">
            <use href="#rect"/>

            <path class="line" d="M0 10 H10 L40 25 H50"/>
            <path class="line" d="M0 40 H10"/>
            <path class="line" d="M0 25 H5"/>
            <text class="text" x="12.5" y="28" style="font-size:10px">>0</text>

            <circle class="line" cx="10" cy="10" r="1.25" style="stroke-width:3"/>
            <circle class="line" cx="40" cy="25" r="1.25" style="stroke-width:3"/>
            <circle class="line" cx="10" cy="40" r="1.25" style="stroke-width:3"/>
        </g>
    </defs>


    <!-- Input -->
    <g transform="translate(0 0)">
        <path class="line" d="M0 0 V75 H45"/>
        <use href="#arrow" transform="translate(50 75)"/>
    </g>

    <!-- I -->
    <g transform="translate(50, 75)">
        <g transform="translate(0, -25)">
            <use href="#rect"/>
            <text class="text" x="25" y="17.5">1</text>
            <path class="line" d="M17.5 25 H32.5"/>
            <text class="text" x="25" y="40">Ti</text>
        </g>

        <path class="line" d="M50 0 H65 V-15 H95"/>
        <use href="#arrow" transform="translate(100 -15)"/>

        <g transform="translate(100, -25)">
            <use href="#decider"/>
        </g>

        <path class="line" d="M150 0 H170"/>
        <use href="#arrow" transform="translate(175, 0)"/>

        <g transform="translate(175, -25)">
            <use href="#integrator"/>
        </g>

    </g>

    <!-- Output -->
    <g transform="translate(325 0)">
        <path class="line" d="M0 10 V75 H-50"/>
        <use href="#arrow" transform="rotate(-90 2.5 2.5)"/>
        <!-- Node -->
        <circle class="fill" cx="25" cy="0" r="4"/>
        <circle class="fill" cx="125" cy="0" r="4"/>

        <!-- Sum -->
        <g transform="translate(25 125)">
            <circle class="block" cx="0" cy="0" r="5"/>
            <use href="#arrow" transform="translate(0 -5) rotate(90 0 0)"/>
            <use href="#arrow" transform="translate(5 0) rotate(180 0 0)"/>
            <line class="line" x1="5" y1="-10" x2="10" y2="-10"/>
        </g>

        <path class="line" d="M25 0 V115"/>
        <path class="line" d="M125 0 V125 H35"/>
        <path class="line" d="M20 125 H-200 V75 H-180"/>
        <use href="#arrow" transform="translate(-175 75)"/>
    </g>

</svg>