<?xml version="1.0" encoding="utf-8" standalone="no"?>
<!DOCTYPE svg PUBLIC "-//W3C//DTD SVG 1.1//EN"
        "http://www.w3.org/Graphics/SVG/1.1/DTD/svg11.dtd">
<svg xmlns:xlink="http://www.w3.org/1999/xlink" width="82.4pt" height="9.678125pt" viewBox="0 0 82.4 9.678125"
     xmlns="http://www.w3.org/2000/svg" version="1.1">
    <metadata>
        <rdf:RDF xmlns:dc="http://purl.org/dc/elements/1.1/" xmlns:cc="http://creativecommons.org/ns#"
                 xmlns:rdf="http://www.w3.org/1999/02/22-rdf-syntax-ns#">
            <cc:Work>
                <dc:type rdf:resource="http://purl.org/dc/dcmitype/StillImage"/>
                <dc:date>2026-04-08T20:26:49.320676</dc:date>
                <dc:format>image/svg+xml</dc:format>
                <dc:creator>
                    <cc:Agent>
                        <dc:title>Matplotlib v3.10.8, https://matplotlib.org/</dc:title>
                    </cc:Agent>
                </dc:creator>
            </cc:Work>
        </rdf:RDF>
    </metadata>
    <defs>
        <style type="text/css">*{stroke-linejoin: round; stroke-linecap: butt}</style>
    </defs>
    <g id="figure_1">
        <g id="patch_1">
            <path d="M 0 9.678125
L 82.4 9.678125 
L 82.4 0 
L 0 0 
L 0 9.678125 
z
" style="fill: none; opacity: 0"/>
        </g>
        <g id="text_1">
            <!-- $u(t) = \lambda \cdot \sigma(t - t_0)$ -->
            <g transform="translate(0 7.598437) scale(0.1 -0.1)">
                <defs>
                    <path id="DejaVuSans-Oblique-75" d="M 428 1388
L 838 3500 
L 1416 3500 
L 1006 1409 
Q 975 1256 961 1147 
Q 947 1038 947 966 
Q 947 700 1109 554 
Q 1272 409 1569 409 
Q 2031 409 2368 721 
Q 2706 1034 2809 1563 
L 3194 3500 
L 3769 3500 
L 3091 0 
L 2516 0 
L 2631 550 
Q 2388 244 2052 76 
Q 1716 -91 1338 -91 
Q 878 -91 622 161 
Q 366 413 366 863 
Q 366 956 381 1097 
Q 397 1238 428 1388 
z
" transform="scale(0.015625)"/>
                    <path id="DejaVuSans-28" d="M 1984 4856
Q 1566 4138 1362 3434 
Q 1159 2731 1159 2009 
Q 1159 1288 1364 580 
Q 1569 -128 1984 -844 
L 1484 -844 
Q 1016 -109 783 600 
Q 550 1309 550 2009 
Q 550 2706 781 3412 
Q 1013 4119 1484 4856 
L 1984 4856 
z
" transform="scale(0.015625)"/>
                    <path id="DejaVuSans-Oblique-74" d="M 2706 3500
L 2619 3053 
L 1472 3053 
L 1100 1153 
Q 1081 1047 1072 975 
Q 1063 903 1063 863 
Q 1063 663 1183 572 
Q 1303 481 1569 481 
L 2150 481 
L 2053 0 
L 1503 0 
Q 991 0 739 200 
Q 488 400 488 806 
Q 488 878 497 964 
Q 506 1050 525 1153 
L 897 3053 
L 409 3053 
L 500 3500 
L 978 3500 
L 1172 4494 
L 1747 4494 
L 1556 3500 
L 2706 3500 
z
" transform="scale(0.015625)"/>
                    <path id="DejaVuSans-29" d="M 513 4856
L 1013 4856 
Q 1481 4119 1714 3412 
Q 1947 2706 1947 2009 
Q 1947 1309 1714 600 
Q 1481 -109 1013 -844 
L 513 -844 
Q 928 -128 1133 580 
Q 1338 1288 1338 2009 
Q 1338 2731 1133 3434 
Q 928 4138 513 4856 
z
" transform="scale(0.015625)"/>
                    <path id="DejaVuSans-3d" d="M 678 2906
L 4684 2906 
L 4684 2381 
L 678 2381 
L 678 2906 
z
M 678 1631 
L 4684 1631 
L 4684 1100 
L 678 1100 
L 678 1631 
z
" transform="scale(0.015625)"/>
                    <path id="DejaVuSans-Oblique-3bb" d="M 2350 4316
L 3125 0 
L 2516 0 
L 2038 2588 
L 328 0 
L -281 0 
L 1903 3356 
L 1794 3975 
Q 1725 4369 1391 4369 
L 1091 4369 
L 1184 4863 
L 1550 4856 
Q 2253 4847 2350 4316 
z
" transform="scale(0.015625)"/>
                    <path id="DejaVuSans-22c5" d="M 684 2619
L 1344 2619 
L 1344 1825 
L 684 1825 
L 684 2619 
z
" transform="scale(0.015625)"/>
                    <path id="DejaVuSans-Oblique-3c3" d="M 2219 3044
Q 1744 3044 1422 2700 
Q 1081 2341 969 1747 
Q 844 1119 1044 756 
Q 1241 397 1706 397 
Q 2166 397 2503 759 
Q 2844 1122 2966 1747 
Q 3075 2319 2881 2700 
Q 2700 3044 2219 3044 
z
M 2309 3503 
L 4219 3500 
L 4106 2925 
L 3463 2925 
Q 3706 2438 3575 1747 
Q 3406 888 2884 400 
Q 2359 -91 1609 -91 
Q 856 -91 525 400 
Q 194 888 363 1747 
Q 528 2609 1050 3097 
Q 1484 3503 2309 3503 
z
" transform="scale(0.015625)"/>
                    <path id="DejaVuSans-2212" d="M 678 2272
L 4684 2272 
L 4684 1741 
L 678 1741 
L 678 2272 
z
" transform="scale(0.015625)"/>
                    <path id="DejaVuSans-30" d="M 2034 4250
Q 1547 4250 1301 3770 
Q 1056 3291 1056 2328 
Q 1056 1369 1301 889 
Q 1547 409 2034 409 
Q 2525 409 2770 889 
Q 3016 1369 3016 2328 
Q 3016 3291 2770 3770 
Q 2525 4250 2034 4250 
z
M 2034 4750 
Q 2819 4750 3233 4129 
Q 3647 3509 3647 2328 
Q 3647 1150 3233 529 
Q 2819 -91 2034 -91 
Q 1250 -91 836 529 
Q 422 1150 422 2328 
Q 422 3509 836 4129 
Q 1250 4750 2034 4750 
z
" transform="scale(0.015625)"/>
                </defs>
                <use xlink:href="#DejaVuSans-Oblique-75" transform="translate(0 0.015625)"/>
                <use xlink:href="#DejaVuSans-28" transform="translate(63.378906 0.015625)"/>
                <use xlink:href="#DejaVuSans-Oblique-74" transform="translate(102.392578 0.015625)"/>
                <use xlink:href="#DejaVuSans-29" transform="translate(141.601562 0.015625)"/>
                <use xlink:href="#DejaVuSans-3d" transform="translate(200.097656 0.015625)"/>
                <use xlink:href="#DejaVuSans-Oblique-3bb" transform="translate(303.369141 0.015625)"/>
                <use xlink:href="#DejaVuSans-22c5" transform="translate(382.03125 0.015625)"/>
                <use xlink:href="#DejaVuSans-Oblique-3c3" transform="translate(433.300781 0.015625)"/>
                <use xlink:href="#DejaVuSans-28" transform="translate(496.679688 0.015625)"/>
                <use xlink:href="#DejaVuSans-Oblique-74" transform="translate(535.693359 0.015625)"/>
                <use xlink:href="#DejaVuSans-2212" transform="translate(594.384766 0.015625)"/>
                <use xlink:href="#DejaVuSans-Oblique-74" transform="translate(697.65625 0.015625)"/>
                <use xlink:href="#DejaVuSans-30" transform="translate(736.865234 -16.390625) scale(0.7)"/>
                <use xlink:href="#DejaVuSans-29" transform="translate(784.135742 0.015625)"/>
            </g>
        </g>
    </g>
</svg>
