<?xml version="1.0" encoding="utf-8" standalone="no"?>
<!DOCTYPE svg PUBLIC "-//W3C//DTD SVG 1.1//EN"
        "http://www.w3.org/Graphics/SVG/1.1/DTD/svg11.dtd">
<svg xmlns:xlink="http://www.w3.org/1999/xlink" width="92.2pt" height="16.5pt" viewBox="0 0 92.2 16.5"
     xmlns="http://www.w3.org/2000/svg" version="1.1">
    <metadata>
        <rdf:RDF xmlns:dc="http://purl.org/dc/elements/1.1/" xmlns:cc="http://creativecommons.org/ns#"
                 xmlns:rdf="http://www.w3.org/1999/02/22-rdf-syntax-ns#">
            <cc:Work>
                <dc:type rdf:resource="http://purl.org/dc/dcmitype/StillImage"/>
                <dc:date>2026-04-08T20:26:49.297934</dc:date>
                <dc:format>image/svg+xml</dc:format>
                <dc:creator>
                    <cc:Agent>
                        <dc:title>Matplotlib v3.10.8, https://matplotlib.org/</dc:title>
                    </cc:Agent>
                </dc:creator>
            </cc:Work>
        </rdf:RDF>
    </metadata>
    <defs>
        <style type="text/css">*{stroke-linejoin: round; stroke-linecap: butt}</style>
    </defs>
    <g id="figure_1">
        <g id="patch_1">
            <path d="M 0 16.5
L 92.2 16.5 
L 92.2 0 
L 0 0 
L 0 16.5 
z
" style="fill: none; opacity: 0"/>
        </g>
        <g id="text_1">
            <!-- $G(s) = \frac{(s - z_1)(s - z_2)\ldots}{(s - p_1)(s - p_2)\ldots}$ -->
            <g transform="translate(0 10.9) scale(0.1 -0.1)">
                <defs>
                    <path id="DejaVuSans-Oblique-47" d="M 3494 697
L 3738 1919 
L 2700 1919 
L 2797 2438 
L 4453 2438 
L 4050 384 
Q 3634 156 3143 32 
Q 2653 -91 2156 -91 
Q 1278 -91 783 396 
Q 288 884 288 1753 
Q 288 2475 589 3126 
Q 891 3778 1422 4213 
Q 1756 4484 2153 4617 
Q 2550 4750 3034 4750 
Q 3472 4750 3873 4639 
Q 4275 4528 4641 4306 
L 4513 3634 
Q 4231 3928 3853 4083 
Q 3475 4238 3047 4238 
Q 2550 4238 2172 4048 
Q 1794 3859 1497 3463 
Q 1244 3125 1098 2667 
Q 953 2209 953 1734 
Q 953 1081 1287 751 
Q 1622 422 2284 422 
Q 2616 422 2925 492 
Q 3234 563 3494 697 
z
" transform="scale(0.015625)"/>
                    <path id="DejaVuSans-28" d="M 1984 4856
Q 1566 4138 1362 3434 
Q 1159 2731 1159 2009 
Q 1159 1288 1364 580 
Q 1569 -128 1984 -844 
L 1484 -844 
Q 1016 -109 783 600 
Q 550 1309 550 2009 
Q 550 2706 781 3412 
Q 1013 4119 1484 4856 
L 1984 4856 
z
" transform="scale(0.015625)"/>
                    <path id="DejaVuSans-Oblique-73" d="M 3200 3397
L 3091 2853 
Q 2863 2978 2609 3040 
Q 2356 3103 2088 3103 
Q 1634 3103 1373 2948 
Q 1113 2794 1113 2528 
Q 1113 2219 1719 2053 
Q 1766 2041 1788 2034 
L 1972 1978 
Q 2547 1819 2739 1644 
Q 2931 1469 2931 1166 
Q 2931 609 2489 259 
Q 2047 -91 1331 -91 
Q 1053 -91 747 -37 
Q 441 16 72 128 
L 184 722 
Q 500 559 806 475 
Q 1113 391 1394 391 
Q 1816 391 2080 572 
Q 2344 753 2344 1031 
Q 2344 1331 1650 1516 
L 1591 1531 
L 1394 1581 
Q 956 1697 753 1886 
Q 550 2075 550 2369 
Q 550 2928 970 3256 
Q 1391 3584 2113 3584 
Q 2397 3584 2667 3537 
Q 2938 3491 3200 3397 
z
" transform="scale(0.015625)"/>
                    <path id="DejaVuSans-29" d="M 513 4856
L 1013 4856 
Q 1481 4119 1714 3412 
Q 1947 2706 1947 2009 
Q 1947 1309 1714 600 
Q 1481 -109 1013 -844 
L 513 -844 
Q 928 -128 1133 580 
Q 1338 1288 1338 2009 
Q 1338 2731 1133 3434 
Q 928 4138 513 4856 
z
" transform="scale(0.015625)"/>
                    <path id="DejaVuSans-3d" d="M 678 2906
L 4684 2906 
L 4684 2381 
L 678 2381 
L 678 2906 
z
M 678 1631 
L 4684 1631 
L 4684 1100 
L 678 1100 
L 678 1631 
z
" transform="scale(0.015625)"/>
                    <path id="DejaVuSans-2212" d="M 678 2272
L 4684 2272 
L 4684 1741 
L 678 1741 
L 678 2272 
z
" transform="scale(0.015625)"/>
                    <path id="DejaVuSans-Oblique-7a" d="M 744 3500
L 3475 3500 
L 3372 2975 
L 738 459 
L 2913 459 
L 2822 0 
L -19 0 
L 84 525 
L 2719 3041 
L 653 3041 
L 744 3500 
z
" transform="scale(0.015625)"/>
                    <path id="DejaVuSans-31" d="M 794 531
L 1825 531 
L 1825 4091 
L 703 3866 
L 703 4441 
L 1819 4666 
L 2450 4666 
L 2450 531 
L 3481 531 
L 3481 0 
L 794 0 
L 794 531 
z
" transform="scale(0.015625)"/>
                    <path id="DejaVuSans-32" d="M 1228 531
L 3431 531 
L 3431 0 
L 469 0 
L 469 531 
Q 828 903 1448 1529 
Q 2069 2156 2228 2338 
Q 2531 2678 2651 2914 
Q 2772 3150 2772 3378 
Q 2772 3750 2511 3984 
Q 2250 4219 1831 4219 
Q 1534 4219 1204 4116 
Q 875 4013 500 3803 
L 500 4441 
Q 881 4594 1212 4672 
Q 1544 4750 1819 4750 
Q 2544 4750 2975 4387 
Q 3406 4025 3406 3419 
Q 3406 3131 3298 2873 
Q 3191 2616 2906 2266 
Q 2828 2175 2409 1742 
Q 1991 1309 1228 531 
z
" transform="scale(0.015625)"/>
                    <path id="DejaVuSans-2026" d="M 2869 794
L 3531 794 
L 3531 0 
L 2869 0 
L 2869 794 
z
M 4997 794 
L 5663 794 
L 5663 0 
L 4997 0 
L 4997 794 
z
M 738 794 
L 1403 794 
L 1403 0 
L 738 0 
L 738 794 
z
" transform="scale(0.015625)"/>
                    <path id="DejaVuSans-Oblique-70" d="M 3175 2156
Q 3175 2616 2975 2859 
Q 2775 3103 2400 3103 
Q 2144 3103 1911 2972 
Q 1678 2841 1497 2591 
Q 1319 2344 1212 1994 
Q 1106 1644 1106 1300 
Q 1106 863 1306 627 
Q 1506 391 1875 391 
Q 2147 391 2380 519 
Q 2613 647 2778 891 
Q 2956 1147 3065 1494 
Q 3175 1841 3175 2156 
z
M 1394 2969 
Q 1625 3272 1939 3428 
Q 2253 3584 2638 3584 
Q 3175 3584 3472 3232 
Q 3769 2881 3769 2247 
Q 3769 1728 3584 1258 
Q 3400 788 3053 416 
Q 2822 169 2531 39 
Q 2241 -91 1919 -91 
Q 1547 -91 1294 64 
Q 1041 219 916 525 
L 556 -1331 
L -19 -1331 
L 922 3500 
L 1497 3500 
L 1394 2969 
z
" transform="scale(0.015625)"/>
                </defs>
                <use xlink:href="#DejaVuSans-Oblique-47" transform="translate(0 0.60625)"/>
                <use xlink:href="#DejaVuSans-28" transform="translate(77.490234 0.60625)"/>
                <use xlink:href="#DejaVuSans-Oblique-73" transform="translate(116.503906 0.60625)"/>
                <use xlink:href="#DejaVuSans-29" transform="translate(168.603516 0.60625)"/>
                <use xlink:href="#DejaVuSans-3d" transform="translate(227.099609 0.60625)"/>
                <use xlink:href="#DejaVuSans-28" transform="translate(338.371094 55.8875) scale(0.7)"/>
                <use xlink:href="#DejaVuSans-Oblique-73" transform="translate(365.680664 55.8875) scale(0.7)"/>
                <use xlink:href="#DejaVuSans-2212" transform="translate(415.788086 55.8875) scale(0.7)"/>
                <use xlink:href="#DejaVuSans-Oblique-7a" transform="translate(488.078125 55.8875) scale(0.7)"/>
                <use xlink:href="#DejaVuSans-31" transform="translate(524.821289 44.403125) scale(0.49)"/>
                <use xlink:href="#DejaVuSans-29" transform="translate(557.910645 55.8875) scale(0.7)"/>
                <use xlink:href="#DejaVuSans-28" transform="translate(585.220215 55.8875) scale(0.7)"/>
                <use xlink:href="#DejaVuSans-Oblique-73" transform="translate(612.529785 55.8875) scale(0.7)"/>
                <use xlink:href="#DejaVuSans-2212" transform="translate(662.637207 55.8875) scale(0.7)"/>
                <use xlink:href="#DejaVuSans-Oblique-7a" transform="translate(734.927246 55.8875) scale(0.7)"/>
                <use xlink:href="#DejaVuSans-32" transform="translate(771.67041 44.403125) scale(0.49)"/>
                <use xlink:href="#DejaVuSans-29" transform="translate(804.759766 55.8875) scale(0.7)"/>
                <use xlink:href="#DejaVuSans-2026" transform="translate(832.069336 55.8875) scale(0.7)"/>
                <use xlink:href="#DejaVuSans-28" transform="translate(330.371094 -39.959375) scale(0.7)"/>
                <use xlink:href="#DejaVuSans-Oblique-73" transform="translate(357.680664 -39.959375) scale(0.7)"/>
                <use xlink:href="#DejaVuSans-2212" transform="translate(407.788086 -39.959375) scale(0.7)"/>
                <use xlink:href="#DejaVuSans-Oblique-70" transform="translate(480.078125 -39.959375) scale(0.7)"/>
                <use xlink:href="#DejaVuSans-31" transform="translate(524.511719 -51.44375) scale(0.49)"/>
                <use xlink:href="#DejaVuSans-29" transform="translate(557.601074 -39.959375) scale(0.7)"/>
                <use xlink:href="#DejaVuSans-28" transform="translate(584.910645 -39.959375) scale(0.7)"/>
                <use xlink:href="#DejaVuSans-Oblique-73" transform="translate(612.220215 -39.959375) scale(0.7)"/>
                <use xlink:href="#DejaVuSans-2212" transform="translate(662.327637 -39.959375) scale(0.7)"/>
                <use xlink:href="#DejaVuSans-Oblique-70" transform="translate(734.617676 -39.959375) scale(0.7)"/>
                <use xlink:href="#DejaVuSans-32" transform="translate(779.05127 -51.44375) scale(0.49)"/>
                <use xlink:href="#DejaVuSans-29" transform="translate(812.140625 -39.959375) scale(0.7)"/>
                <use xlink:href="#DejaVuSans-2026" transform="translate(839.450195 -39.959375) scale(0.7)"/>
                <path d="M 330.371094 19.403125
L 330.371094 25.653125 
L 909.450195 25.653125 
L 909.450195 19.403125 
L 330.371094 19.403125 
z
"/>
            </g>
        </g>
    </g>
</svg>
